<?xml version="1.0" encoding="utf-8"?>
<!-- Generator: Adobe Illustrator 18.1.1, SVG Export Plug-In . SVG Version: 6.00 Build 0)  -->
<svg version="1.1" xmlns="http://www.w3.org/2000/svg" xmlns:xlink="http://www.w3.org/1999/xlink" x="0px" y="0px"
	 viewBox="0 0 238.1104 206.20999" enable-background="new 0 0 238.1104 206.20999" xml:space="preserve">
<g id="Desert">
	<g>
		<polygon fill="#F1F2F2" stroke="#D1D3D4" stroke-width="0.5" points="59.5293,206.21046 0,103.10496 59.5293,-0.00047 
			178.58299,-0.00047 238.1104,103.10496 178.58299,206.21046 		"/>
		<g>
			<defs>
				<polygon id="SVGID_7_" points="66.6143,193.93506 14.1729,103.10496 66.6143,12.27492 171.4951,12.27492 223.93649,103.10496 
					171.4951,193.93506 				"/>
			</defs>
			<clipPath id="SVGID_4_">
				<use xlink:href="#SVGID_7_"  overflow="visible"/>
			</clipPath>
			<g clip-path="url(#SVGID_4_)">
				<rect x="57.1143" y="2.1802" fill="#BB6041" width="127.0781" height="17.75686"/>
				<g>
					<path fill="#F3CABF" d="M-41.1533,103.83936l11.4101-40.6953c27.834-2.0654,52.2325-10.459,75.9292-18.6094
						c26.233-9.0244,51.0108-17.5488,79.82671-17.5488c31.0039,0,56.4414,12.6016,81.04099,24.7871
						c19.93561,9.875,38.88284,19.2617,59.3633,21.1777c0.48441,8.5118-0.8848,29.9043-15.31444,78.1329
						c-5.76758,19.2753-12.05466,37.55861-16.73436,50.5918L-41.1533,103.83936z"/>
					<path fill="#D0896D" d="M126.0127,48.24566c26.0274,0,48.16599,10.9668,71.60549,22.5781
						c14.84961,7.3555,30.01561,14.86909,46.31053,19.4199c-1.76762,11.8018-5.82222,30.8252-14.88283,60.31449
						c-2.5742,8.37891-5.21089,16.48241-7.7207,23.9257L-15.3203,90.45266l2.188-7.8037
						c24.4795-3.6475,46.3154-11.15919,66.2339-18.0108C78.6699,55.84226,100.7515,48.24566,126.0127,48.24566 M126.0127,5.72609
						c-63.8476,0-108.2695,36.63867-168.6411,36.63867c-1.1108,0-2.2363-0.0117-3.3579-0.0371l-21,74.8984l313.99902,111.5
						c0,0,68.88869-176.68159,27.47459-176.68159c-0.03711,0-0.07809,0-0.11331,0c-0.14249,0.0019-0.28119,0.0019-0.4238,0.0019
						C232.45219,52.04636,190.7901,5.72609,126.0127,5.72609L126.0127,5.72609z"/>
					<path fill="#8C4940" d="M126.0127,34.07376c29.3438,0,54.0274,12.2266,77.89649,24.0498
						c17.73441,8.7842,35.95311,17.8096,55.41795,21.0332c-0.48828,10.47359-3.48827,31.8174-15.71873,72.2373
						c-4.59761,15.1953-9.47072,29.6563-13.54491,41.23241L-32.542,99.37646l8.2979-29.5957
						c26.6142-2.6797,49.9902-10.7207,72.7353-18.5449C74.148,42.40966,98.3818,34.07376,126.0127,34.07376 M126.0127,5.72609
						c-63.8476,0-108.2695,36.63867-168.6411,36.63867c-1.1108,0-2.2363-0.0117-3.3579-0.0371l-21,74.8984l313.99902,111.5
						c0,0,68.88869-176.68159,27.47459-176.68159c-0.03711,0-0.07809,0-0.11331,0c-0.14249,0.0019-0.28119,0.0019-0.4238,0.0019
						C232.45219,52.04636,190.7901,5.72609,126.0127,5.72609L126.0127,5.72609z"/>
					<path fill="#BB6041" d="M126.0127,19.89996c32.6621,0,58.85549,12.9746,84.18749,25.5234
						c21.127,10.4648,41.10744,20.3623,62.34961,20.7832c1.4707,4.7031,4.04691,23.2832-13.582,83.2793
						c-7.14259,24.3125-15.29689,47.46091-20.336,61.22461l-288.3959-102.4082l14.56-51.9316
						c29.0083-1.3106,54.4321-10.0567,79.08501-18.5371C70.69,28.61086,96.0122,19.89996,126.0127,19.89996 M126.0127,5.72609
						c-63.8476,0-108.2695,36.63867-168.6411,36.63867c-1.1108,0-2.2363-0.0117-3.3579-0.0371l-21,74.8984l313.99902,111.5
						c0,0,68.88869-176.68159,27.47459-176.68159c-0.03711,0-0.07809,0-0.11331,0c-0.14249,0.0019-0.28119,0.0019-0.4238,0.0019
						C232.45219,52.04636,190.7901,5.72609,126.0127,5.72609L126.0127,5.72609z"/>
				</g>
				<g>
					<path fill="#EAB4A2" d="M-41.2256,148.54247l12.2222-55.0517c27.4936-5.8399,102.35941-18.9893,146.54781-18.9893
						c4.60889,0,8.8042,0.1426,12.4722,0.4229c21.4375,1.6367,31.6133,14.7627,41.45309,27.45599
						c7.44931,9.60751,15.15041,19.541,27.4082,22.0938c4.4473,0.9258,9.2422,1.3965,14.25,1.3965
						c8.5372,0,16.91411-1.3702,24.0918-3.1016l-3.2343,62.4883L16.0527,218.31596L-41.2256,148.54247z"/>
					<path fill="#D1866D" d="M117.5503,88.67536c4.2456,0,8.0776,0.1289,11.38619,0.3808
						c14.46291,1.1045,21.00781,8.6924,31.33211,22.0078c8.1757,10.5449,18.34959,23.66801,35.7187,27.28519
						c5.3965,1.125,11.16409,1.69331,17.14059,1.69331c3.0508,0,6.0704-0.14841,9.0274-0.41011l-1.72661,33.34761L21.8945,203.09326
						l-47.7885-58.21291l8.7383-39.3613c31.5136-6.2227,95.5122-16.8428,134.7041-16.8437H117.5503 M117.5444,60.32966
						c-53.39301,0-144.4565,17.6875-158.44479,21.3535l-15.6562,70.52151l66.7675,81.33199l237.3311-36l4.90039-94.66599
						c0,0-19.4238,8.8261-39.3145,8.8261c-3.81439,0-7.64639-0.3242-11.3613-1.0976
						c-18.8105-3.918-25.9922-46.3945-70.67191-49.8067C126.9463,60.47516,122.4033,60.32866,117.5444,60.32966L117.5444,60.32966z"
						/>
					<path fill="#AB5439" d="M117.5484,74.50146c4.6069,0,8.8002,0.1426,12.4682,0.4219
						c21.4375,1.6377,31.6133,14.7637,41.45309,27.457c7.44931,9.60751,15.15041,19.541,27.4082,22.0938
						c4.4473,0.9258,9.2422,1.3965,14.25,1.3965c8.5372,0,16.91411-1.3702,24.0918-3.1016l-3.2343,62.4883L16.0527,218.31596
						l-57.2783-69.7735l12.2222-55.0517c27.4922-5.83891,102.355-18.9873,146.5498-18.9893H117.5484 M117.5444,60.32866
						c-53.39301,0.001-144.4565,17.6885-158.44479,21.3545l-15.6562,70.52151l66.7675,81.33199l237.3311-36l4.90039-94.66599
						c0,0-19.4238,8.8261-39.3145,8.8261c-3.81439,0-7.64639-0.3242-11.3613-1.0976
						c-18.8105-3.918-25.9922-46.3945-70.67191-49.8067C126.9463,60.47516,122.4033,60.32866,117.5444,60.32866L117.5444,60.32866z"
						/>
				</g>
				<g>
					<path fill="#AB5439" d="M106.3511,212.50926l-37.28519-84.7851c22.4785-6.3789,60.9507-16.0176,93.2984-16.0176
						c2.1797,0,4.3203,0.0449,6.3652,0.1357c22.3633,0.9854,58.5313,14.9014,84.94141,25.06159
						c14.28709,5.49611,26.11919,10.0468,34.91988,12.4453c0.41412,4.56641,0.28522,15.44141-4.56439,38.76561
						c-1.9278,9.27339-4.0899,18.01559-5.75391,24.3945H106.3511z"/>
					<path fill="#BF6447" d="M162.3721,125.87946c1.9668,0,3.8965,0.041,5.73241,0.122
						c20.05469,0.8848,54.97849,14.3203,80.47656,24.1289c9.63673,3.70711,18.19722,7.002,25.65822,9.5625
						c-0.52148,5.8692-1.78708,14.8828-4.668,28.2715c-0.77728,3.60741-1.58008,7.10741-2.3613,10.37111H115.6011l-26.897-61.16211
						c29.5767-7.502,54.2735-11.293,73.66409-11.2939H162.3721 M162.3643,97.53276
						c-44.30231,0.0019-98.93311,17.0136-112.7578,21.1504l47.4941,107.99999h191.998c0,0,25.2207-86.70319,7.49811-90
						c-21.49811-4-88.53131-37.29299-127.24411-38.99999C167.05569,97.58156,164.7276,97.53276,162.3643,97.53276L162.3643,97.53276
						z"/>
					<path fill="#8C4940" d="M162.3701,111.70656c2.1758,0,4.3145,0.0449,6.35941,0.1357
						c22.3633,0.9854,58.5313,14.9004,84.94141,25.06159c14.28709,5.49611,26.11919,10.0468,34.92189,12.4453
						c0.4101,4.5547,0.2851,15.39061-4.5332,38.6015c-1.9317,9.31651-4.1113,18.1329-5.78909,24.55861H106.3511l-37.28519-84.7851
						c22.479-6.3789,60.9507-16.0166,93.30229-16.0176H162.3701 M162.3643,97.53276
						c-44.30231,0.0019-98.93311,17.0136-112.7578,21.1504l47.4941,107.99999h191.998c0,0,25.2207-86.70319,7.49811-90
						c-21.49811-4-88.53131-37.29299-127.24411-38.99999C167.05569,97.58156,164.7276,97.53276,162.3643,97.53276L162.3643,97.53276
						z"/>
				</g>
				<g>
					<path fill="#BF6447" d="M5.2632,127.02686c12.3662-1.7519,23.6309-2.6367,33.5923-2.6367
						c18.2783,0,32.2324,2.834,42.6596,8.6641c2.4371,1.3613,5.1309,3.08389,7.983,4.9082
						c13.2939,8.50189,31.5,20.1445,60.93259,20.1445h61.79291l-15.3613,49.76369l-202.4346,7.06831L5.2632,127.02686z"/>
					<path fill="#D1866D" d="M38.8594,138.56396c15.5718,0,27.5962,2.30859,35.7402,6.86139
						c2.0703,1.1582,4.5923,2.7695,7.2627,4.4785c13.9341,8.91011,34.9907,22.37691,68.5684,22.37691h42.584l-6.72269,21.77539
						l-175.7666,6.1387l7.4517-60.457c7.5254-0.7813,14.5048-1.17389,20.8798-1.17389H38.8594 M38.8555,110.21726
						c-12.9502,0-28.2305,1.3575-46.3516,4.4659l-14.1738,114.99999l229.1006-8l24-77.75c0,0-43.959,0-81,0
						c-31.3745,0-47.5508-15.17389-61.99899-23.24999C77.2305,114.42046,61.6484,110.21636,38.8555,110.21726L38.8555,110.21726z"/>
					<path fill="#CC7655" d="M38.8594,124.39016c18.2759,0,32.2285,2.834,42.6562,8.6641
						c2.4366,1.3613,5.13039,3.08389,7.9825,4.9082c13.2939,8.50189,31.5,20.1445,60.93259,20.1445h61.79291l-15.3613,49.76369
						l-202.4346,7.06831l10.8355-87.91211c12.3657-1.7519,23.6304-2.6367,33.5947-2.6367H38.8594 M38.8555,110.21726
						c-12.9502,0-28.2305,1.3575-46.3516,4.4659l-14.1738,114.99999l229.1006-8l24-77.75c0,0-43.959,0-81,0
						c-31.3745,0-47.5508-15.17389-61.99899-23.24999C77.2305,114.42046,61.6489,110.21636,38.8555,110.21726L38.8555,110.21726z"/>
				</g>
			</g>
		</g>
	</g>
</g>
</svg>
