<?xml version="1.0" encoding="utf-8"?>
<!-- Generator: Adobe Illustrator 18.1.1, SVG Export Plug-In . SVG Version: 6.00 Build 0)  -->
<svg version="1.1" xmlns="http://www.w3.org/2000/svg" xmlns:xlink="http://www.w3.org/1999/xlink" x="0px" y="0px"
	 viewBox="0 0 238.1098 206.2104" enable-background="new 0 0 238.1098 206.2104" xml:space="preserve">
<g id="Wheat">
	<g>
		<polygon fill="#F1F2F2" stroke="#D1D3D4" stroke-width="0.5" points="59.5283,206.2104 0,103.10497 59.5283,0 178.5825,0 
			238.1098,103.10497 178.5825,206.2104 		"/>
		<g>
			<defs>
				<polygon id="SVGID_13_" points="66.6142,193.937 14.1738,103.10497 66.6142,12.2744 171.4966,12.2744 223.938,103.10497 
					171.4966,193.937 				"/>
			</defs>
			<clipPath id="SVGID_8_">
				<use xlink:href="#SVGID_13_"  overflow="visible"/>
			</clipPath>
			<rect x="62.4575" y="4.4766" clip-path="url(#SVGID_8_)" fill="#F5A64B" width="114.5142" height="17.2812"/>
			<g clip-path="url(#SVGID_8_)">
				<g>
					<g>
						<g>
							<g>
								<path fill="#FADB6C" d="M229.6245,115.93114l-14.1738,0.00782c-0.03371-19.20899,0.3569-39.90036,4.71629-61.01856
									c4.32611-20.7993,12.98631-44.0395,32.3213-61.3564l9.40379,10.6049c-16.01859,14.2847-23.87839,34.418-27.84718,53.6343
									C230.0224,77.2593,229.5791,96.8911,229.6245,115.93114z"/>
								<path fill="#F5A64B" d="M243.7973,115.92431l-14.17281,0.00683c-0.04539-19.04004,0.3979-38.67184,4.42041-58.12794
									c3.9688-19.2163,11.8286-39.3496,27.84718-53.6343l9.4028,10.6045c-12.70169,11.252-19.76118,28.2793-23.37349,45.9131
									C244.2363,78.478,243.7402,97.05224,243.7973,115.92431z"/>
							</g>
						</g>
					</g>
					<g>
						<g>
							<g>
								<path fill="#FADB6C" d="M187.10449,115.93114l-14.17389,0.00782c-0.0336-19.20899,0.35649-39.89946,4.7159-61.01856
									c4.32561-20.7988,12.98531-44.0391,32.31979-61.3564l9.40431,10.6049c-16.01811,14.2847-23.8775,34.4185-27.84621,53.6353
									C187.5024,77.2593,187.0591,96.8911,187.10449,115.93114z"/>
								<path fill="#F5A64B" d="M201.2773,115.92431l-14.17281,0.00683c-0.04539-19.04004,0.3979-38.67184,4.41991-58.12694
									c3.9687-19.2168,11.82809-39.3506,27.84621-53.6353l9.40329,10.604c-12.70169,11.2525-19.7612,28.2798-23.373,45.9136
									C201.71629,78.478,201.2202,97.05224,201.2773,115.92431z"/>
								<path fill="#AE4D2C" d="M215.4502,115.91747l-14.1729,0.00684c-0.0571-18.87207,0.439-37.44631,4.1236-55.23781
									c3.6118-17.6338,10.67131-34.6611,23.373-45.9136l9.40331,10.6045c-9.38521,8.2198-15.6445,22.1407-18.8999,38.1929
									C215.93021,79.6968,215.3808,97.21435,215.4502,115.91747z"/>
							</g>
						</g>
					</g>
					<g>
						<g>
							<g>
								<path fill="#FADB6C" d="M144.5849,115.93114l-14.1738,0.00782c-0.0332-19.20899,0.35649-39.89946,4.71581-61.01856
									c4.3257-20.7988,12.9854-44.0391,32.31989-61.3564l9.40431,10.6049c-16.01811,14.2847-23.8775,34.4185-27.84621,53.6353
									C144.98289,77.2593,144.53951,96.8911,144.5849,115.93114z"/>
								<path fill="#F5A64B" d="M158.7578,115.92431l-14.1729,0.00683c-0.04539-19.04004,0.39799-38.67184,4.42-58.12694
									c3.9687-19.2168,11.82809-39.3506,27.84621-53.6353l9.40329,10.604C173.5527,26.0254,166.4931,43.0527,162.8813,60.6865
									C159.19679,78.478,158.7007,97.05224,158.7578,115.92431z"/>
								<path fill="#AE4D2C" d="M172.9306,115.91747l-14.17281,0.00684c-0.0571-18.87207,0.439-37.44631,4.1235-55.23781
									c3.6118-17.6338,10.6714-34.6611,23.37309-45.9136l9.40331,10.6045c-9.3853,8.2198-15.6445,22.1407-18.8999,38.1929
									C173.4106,79.6968,172.8613,97.21435,172.9306,115.91747z"/>
							</g>
						</g>
					</g>
					<g>
						<g>
							<g>
								<path fill="#FADB6C" d="M102.0654,115.93114l-14.1738,0.00782C87.8584,96.72997,88.248,76.0395,92.6074,54.9204
									c4.3257-20.7988,12.9854-44.0391,32.3198-61.3564l9.4043,10.6049c-16.018,14.2847-23.8774,34.4185-27.8462,53.6353
									C102.4634,77.2593,102.02,96.8911,102.0654,115.93114z"/>
								<path fill="#F5A64B" d="M116.2383,115.92431l-14.1729,0.00683c-0.0454-19.04004,0.398-38.67184,4.4199-58.12694
									c3.9688-19.2168,11.8282-39.3506,27.8462-53.6353l9.40331,10.604c-12.7016,11.2525-19.7612,28.2798-23.373,45.9136
									C116.6772,78.478,116.1811,97.05224,116.2383,115.92431z"/>
								<path fill="#AE4D2C" d="M130.4111,115.91747l-14.17281,0.00684c-0.0572-18.87207,0.4389-37.44631,4.1235-55.23781
									c3.6118-17.6338,10.6714-34.6611,23.373-45.9136l9.4034,10.6045c-9.3853,8.2198-15.64459,22.1407-18.8999,38.1929
									C130.8911,79.6968,130.3418,97.21435,130.4111,115.91747z"/>
							</g>
						</g>
					</g>
					<g>
						<g>
							<g>
								<path fill="#FADB6C" d="M59.5459,115.93114l-14.1738,0.00782c-0.0333-19.20899,0.3564-39.89946,4.7158-61.01856
									C54.4136,34.1216,63.0732,10.8813,82.4077-6.436L91.812,4.1689C75.7939,18.4536,67.9346,38.5874,63.9658,57.8042
									C59.9438,77.2593,59.5005,96.8911,59.5459,115.93114z"/>
								<path fill="#F5A64B" d="M73.7187,115.92431l-14.1728,0.00683C59.5005,96.8911,59.9438,77.2593,63.9658,57.8042
									C67.9346,38.5874,75.7939,18.4536,91.812,4.1689l9.40331,10.604c-12.7016,11.2525-19.7612,28.2798-23.373,45.9136
									C74.1577,78.478,73.6616,97.05224,73.7187,115.92431z"/>
								<path fill="#AE4D2C" d="M87.8916,115.91747l-14.1729,0.00684c-0.0571-18.87207,0.439-37.44631,4.1236-55.23781
									c3.6118-17.6338,10.6714-34.6611,23.373-45.9136l9.4033,10.6045c-9.3852,8.2198-15.6445,22.1407-18.8999,38.1929
									C88.3716,79.6968,87.8222,97.21435,87.8916,115.91747z"/>
							</g>
						</g>
					</g>
					<g>
						<g>
							<g>
								<path fill="#FADB6C" d="M17.0263,115.93114l-14.1738,0.00782C2.8193,96.72997,3.209,76.0395,7.5683,54.9204
									C11.894,34.1216,20.5537,10.8813,39.8882-6.436l9.4043,10.6049C33.2744,18.4536,25.415,38.5874,21.4463,57.8042
									C17.4243,77.2593,16.9809,96.8911,17.0263,115.93114z"/>
								<path fill="#F5A64B" d="M31.1992,115.92431l-14.1729,0.00683c-0.0454-19.04004,0.398-38.67184,4.42-58.12694
									C25.415,38.5874,33.2744,18.4536,49.2925,4.1689l9.4033,10.604C45.9941,26.0254,38.9346,43.0527,35.3227,60.6865
									C31.6382,78.478,31.1421,97.05224,31.1992,115.92431z"/>
								<path fill="#AE4D2C" d="M45.3721,115.91747l-14.1729,0.00684c-0.0571-18.87207,0.439-37.44631,4.1235-55.23781
									c3.6119-17.6338,10.6714-34.6611,23.3731-45.9136l9.4033,10.6045c-9.3853,8.2198-15.6445,22.1407-18.8999,38.1929
									C45.852,79.6968,45.3027,97.21435,45.3721,115.91747z"/>
							</g>
						</g>
					</g>
				</g>
				<g>
					<g>
						<g>
							<g>
								<path fill="#FADB6C" d="M65.5967,166.437l14.1738,0.0078c0.0337-19.209-0.3569-39.9004-4.7163-61.01952
									C70.729,84.6265,62.0693,61.3857,42.7353,44.0674l-9.4043,10.605c16.0176,14.2851,23.877,34.4189,27.8457,53.6357
									C65.1987,127.7632,65.6421,147.396,65.5967,166.437z"/>
								<path fill="#F5A64B" d="M51.4238,166.43019l14.1729,0.00681c0.04539-19.041-0.398-38.6738-4.42-58.1289
									C57.208,89.0913,49.3486,68.9575,33.331,54.6724l-9.4038,10.6044C36.6289,76.5288,43.688,93.5571,47.3003,111.19091
									C50.9848,128.9839,51.4809,147.55809,51.4238,166.43019z"/>
								<path fill="#AE4D2C" d="M37.251,166.42329l14.1728,0.0069c0.0571-18.8721-0.439-37.44629-4.1235-55.23928
									C43.688,93.5571,36.6289,76.5288,23.9272,65.27679l-9.4038,10.6036c9.3853,8.2207,15.645,22.14254,18.9004,38.19332
									C36.771,130.20259,37.3203,147.7202,37.251,166.42329z"/>
							</g>
						</g>
					</g>
					<g>
						<g>
							<g>
								<path fill="#FADB6C" d="M108.1162,166.437l14.1738,0.0078c0.0337-19.209-0.3569-39.9004-4.7163-61.01952
									C113.2485,84.6265,104.5888,61.3857,85.2549,44.0674l-9.4043,10.605c16.0175,14.2851,23.8769,34.4189,27.8457,53.6357
									C107.7182,127.7632,108.1616,147.396,108.1162,166.437z"/>
								<path fill="#F5A64B" d="M93.9433,166.43019l14.1729,0.00681c0.04539-19.041-0.398-38.6738-4.41991-58.1289
									C99.7275,89.0913,91.8681,68.9575,75.8506,54.6724l-9.4038,10.6044c12.7016,11.25201,19.7607,28.2803,23.373,45.91412
									C93.5044,128.9839,94.0005,147.55809,93.9433,166.43019z"/>
								<path fill="#AE4D2C" d="M79.7705,166.42329l14.1728,0.0069c0.05721-18.8721-0.4389-37.44629-4.1235-55.23928
									C86.2075,93.5571,79.1484,76.5288,66.4468,65.27679l-9.4039,10.6036c9.3853,8.2207,15.6451,22.14254,18.9004,38.19332
									C79.2905,130.20259,79.8398,147.7202,79.7705,166.42329z"/>
							</g>
						</g>
					</g>
					<g>
						<g>
							<g>
								<path fill="#FADB6C" d="M150.6357,166.437l14.1739,0.0078c0.0336-19.209-0.35699-39.9004-4.7164-61.01952
									c-4.3252-20.79878-12.9848-44.03958-32.3188-61.35788l-9.4043,10.605c16.01759,14.2851,23.877,34.4189,27.8457,53.6357
									C150.23779,127.7632,150.68111,147.396,150.6357,166.437z"/>
								<path fill="#F5A64B" d="M136.46291,166.43019l14.17279,0.00681c0.04541-19.041-0.3979-38.6738-4.41989-58.1289
									c-3.9687-19.2168-11.82811-39.3506-27.8457-53.6357l-9.4038,10.6044c12.7016,11.25201,19.7607,28.2803,23.37299,45.91412
									C136.0239,128.9839,136.52,147.55809,136.46291,166.43019z"/>
								<path fill="#AE4D2C" d="M122.29,166.42329l14.1729,0.0069c0.0571-18.8721-0.43901-37.44629-4.12361-55.23928
									C128.72701,93.5571,121.6679,76.5288,108.9663,65.27679l-9.4038,10.6036c9.3852,8.2207,15.645,22.14254,18.9004,38.19332
									C121.81,130.20259,122.3594,147.7202,122.29,166.42329z"/>
							</g>
						</g>
					</g>
					<g>
						<g>
							<g>
								<path fill="#FADB6C" d="M193.1553,166.437l14.1738,0.0078c0.03369-19.209-0.35699-39.9004-4.71631-61.01952
									C198.2876,84.6265,189.6279,61.3857,170.2939,44.0674l-9.4043,10.605c16.01759,14.2851,23.877,34.4189,27.8457,53.6357
									C192.75729,127.7632,193.2007,147.396,193.1553,166.437z"/>
								<path fill="#F5A64B" d="M178.98241,166.43019l14.1729,0.00681c0.04539-19.041-0.39801-38.6738-4.42-58.1289
									c-3.9687-19.2168-11.82811-39.3506-27.8457-53.6357l-9.40381,10.6044c12.70171,11.25201,19.7608,28.2803,23.37311,45.91412
									C178.5434,128.9839,179.03951,147.55809,178.98241,166.43019z"/>
								<path fill="#AE4D2C" d="M164.8096,166.42329l14.17281,0.0069c0.0571-18.8721-0.43901-37.44629-4.1235-55.23928
									c-3.6123-17.63381-10.6714-34.66211-23.37311-45.91412l-9.40379,10.6036c9.3853,8.2207,15.645,22.14254,18.90041,38.19332
									C164.32961,130.20259,164.87891,147.7202,164.8096,166.42329z"/>
							</g>
						</g>
					</g>
					<g>
						<g>
							<g>
								<path fill="#FADB6C" d="M235.6748,166.437l14.1738,0.0078c0.03369-19.209-0.3569-39.9004-4.71631-61.01952
									C240.8071,84.6265,232.1474,61.3857,212.81351,44.0674l-9.40431,10.605c16.0175,14.2851,23.87691,34.4189,27.8457,53.6357
									C235.27679,127.7632,235.7202,147.396,235.6748,166.437z"/>
								<path fill="#F5A64B" d="M221.50191,166.43019l14.1729,0.00681c0.04539-19.041-0.39801-38.6738-4.41991-58.1289
									c-3.9688-19.2168-11.8282-39.3506-27.8457-53.6357l-9.40379,10.6044c12.7016,11.25201,19.7607,28.2803,23.373,45.91412
									C221.063,128.9839,221.5591,147.55809,221.50191,166.43019z"/>
								<path fill="#AE4D2C" d="M207.3291,166.42329l14.17281,0.0069c0.05719-18.8721-0.4389-37.44629-4.1235-55.23928
									c-3.6123-17.63381-10.6714-34.66211-23.373-45.91412l-9.4039,10.6036c9.3853,8.2207,15.6451,22.14254,18.90041,38.19332
									C206.84911,130.20259,207.39841,147.7202,207.3291,166.42329z"/>
							</g>
						</g>
					</g>
					<g>
						<g>
							<g>
								<path fill="#F5A64B" d="M264.022,166.43019l14.17279,0.00681c0.04541-19.041-0.39789-38.6738-4.41989-58.1289
									c-3.96881-19.2168-11.82861-39.3516-27.84621-53.6357l-9.40379,10.6044c12.7016,11.25201,19.76169,28.2793,23.3735,45.91412
									C263.58301,128.98289,264.0791,147.55809,264.022,166.43019z"/>
								<path fill="#AE4D2C" d="M249.84911,166.42329l14.1729,0.0069c0.0571-18.8721-0.439-37.4473-4.1236-55.23928
									c-3.61182-17.63481-10.67191-34.66211-23.3735-45.91412l-9.40331,10.6036c9.38521,8.2207,15.645,22.14254,18.90041,38.19332
									C249.36909,130.20259,249.9184,147.71919,249.84911,166.42329z"/>
							</g>
						</g>
					</g>
				</g>
				<g>
					<g>
						<g>
							<g>
								<path fill="#FADB6C" d="M229.1411,216.94189l-14.1738,0.00681c-0.03371-19.209,0.3569-39.8994,4.71629-61.0195
									c4.3257-20.7988,12.98531-44.03907,32.31931-61.3574l9.4043,10.60544
									c-16.01759,14.28516-23.8774,34.41895-27.84619,53.63577C229.539,178.269,229.0957,197.90179,229.1411,216.94189z"/>
								<path fill="#F5A64B" d="M243.3139,216.9351l-14.17281,0.00679c-0.04539-19.0401,0.3979-38.6729,4.41991-58.12889
									c3.9688-19.21681,11.8286-39.35061,27.84619-53.63577l9.40381,10.60351
									c-12.7016,11.25395-19.7612,28.28125-23.3735,45.91605C243.7529,179.48779,243.25681,198.063,243.3139,216.9351z"/>
							</g>
						</g>
					</g>
					<g>
						<g>
							<g>
								<path fill="#FADB6C" d="M186.6216,216.94189l-14.1739,0.00681c-0.03369-19.209,0.35701-39.8994,4.71631-61.01851
									c4.3252-20.79979,12.98489-44.04006,32.31889-61.35839l9.40431,10.60544
									c-16.01761,14.28516-23.87701,34.41996-27.8457,53.63577C187.0195,178.269,186.5762,197.90179,186.6216,216.94189z"/>
								<path fill="#F5A64B" d="M200.7944,216.9351l-14.17281,0.00679c-0.04539-19.0401,0.3979-38.6729,4.41991-58.12889
									c3.96869-19.21581,11.82809-39.35061,27.8457-53.63577l9.40379,10.60351
									c-12.70171,11.25395-19.7607,28.28125-23.37311,45.91605C201.2334,179.48779,200.7373,198.063,200.7944,216.9351z"/>
								<path fill="#AE4D2C" d="M214.9673,216.9272l-14.1729,0.0079c-0.0571-18.8721,0.439-37.44731,4.12349-55.23831
									c3.61241-17.6348,10.6714-34.66209,23.37311-45.91605l9.40379,10.60355
									c-9.38519,8.2207-15.64499,22.14249-18.90039,38.19529C215.4472,180.7075,214.8979,198.22409,214.9673,216.9272z"/>
							</g>
						</g>
					</g>
					<g>
						<g>
							<g>
								<path fill="#FADB6C" d="M144.10201,216.94189l-14.1738,0.00681c-0.03371-19.209,0.35689-39.8994,4.71629-61.01851
									c4.3252-20.79979,12.98489-44.04006,32.31889-61.35839l9.40431,10.60544
									c-16.01761,14.28516-23.877,34.41996-27.8457,53.63577C144.5,178.269,144.05659,197.90179,144.10201,216.94189z"/>
								<path fill="#F5A64B" d="M158.2749,216.9351l-14.1729,0.00679c-0.04541-19.0401,0.39799-38.6729,4.42-58.12889
									c3.9687-19.21581,11.82809-39.35061,27.8457-53.63577l9.40379,10.60351
									c-12.70171,11.25395-19.7608,28.28125-23.37309,45.91605C158.71381,179.48779,158.2178,198.063,158.2749,216.9351z"/>
								<path fill="#AE4D2C" d="M172.44769,216.9272l-14.17279,0.0079c-0.0571-18.8721,0.4389-37.44731,4.1235-55.23831
									c3.61229-17.6348,10.67139-34.66209,23.37309-45.91605l9.40379,10.60355
									c-9.3853,8.2207-15.64499,22.14249-18.90039,38.19529C172.9277,180.7075,172.3784,198.22409,172.44769,216.9272z"/>
							</g>
						</g>
					</g>
					<g>
						<g>
							<g>
								<path fill="#FADB6C" d="M101.5825,216.94189l-14.1738,0.00681c-0.0337-19.209,0.3569-39.8994,4.7163-61.01851
									c4.3252-20.79979,12.9848-44.04006,32.3188-61.35839l9.4043,10.60544c-16.0176,14.28516-23.8769,34.41996-27.8457,53.63577
									C101.9804,178.269,101.5371,197.90179,101.5825,216.94189z"/>
								<path fill="#F5A64B" d="M115.7554,216.9351l-14.1729,0.00679c-0.04539-19.0401,0.3979-38.6729,4.41991-58.12889
									c3.9688-19.21581,11.82809-39.35061,27.8457-53.63577l9.40381,10.60351
									c-12.70161,11.25395-19.7607,28.28125-23.37301,45.91605C116.1943,179.48779,115.6982,198.063,115.7554,216.9351z"/>
								<path fill="#AE4D2C" d="M129.92821,216.9272l-14.17281,0.0079c-0.05721-18.8721,0.4389-37.44731,4.1235-55.23831
									c3.6123-17.6348,10.67139-34.66209,23.37301-45.91605l9.40379,10.60355c-9.38521,8.2207-15.645,22.14249-18.9003,38.19529
									C130.4082,180.7075,129.8589,198.22409,129.92821,216.9272z"/>
							</g>
						</g>
					</g>
					<g>
						<g>
							<g>
								<path fill="#FADB6C" d="M59.063,216.94189l-14.1739,0.00681c-0.0337-19.209,0.357-39.8994,4.7163-61.01851
									c4.3252-20.79979,12.9849-44.04006,32.3189-61.35839l9.4043,10.60544C75.311,119.46239,67.4516,139.5972,63.4829,158.813
									C59.4609,178.269,59.0176,197.90179,59.063,216.94189z"/>
								<path fill="#F5A64B" d="M73.2358,216.9351l-14.1728,0.00679c-0.0454-19.0401,0.3979-38.6729,4.4199-58.12889
									c3.9687-19.21581,11.8281-39.35061,27.8457-53.63577l9.4038,10.60351c-12.7017,11.25395-19.7607,28.28125-23.373,45.91605
									C73.6748,179.48779,73.1787,198.063,73.2358,216.9351z"/>
								<path fill="#AE4D2C" d="M87.4087,216.9272l-14.1729,0.0079c-0.0571-18.8721,0.439-37.44731,4.1236-55.23831
									c3.6123-17.6348,10.6713-34.66209,23.373-45.91605l9.4038,10.60355c-9.3852,8.2207-15.645,22.14249-18.9004,38.19529
									C87.8887,180.7075,87.3393,198.22409,87.4087,216.9272z"/>
							</g>
						</g>
					</g>
					<g>
						<g>
							<g>
								<path fill="#FADB6C" d="M16.5434,216.94189L2.3696,216.9487c-0.0337-19.209,0.3569-39.8994,4.7163-61.01851
									c4.3252-20.79979,12.9849-44.04006,32.3189-61.35839l9.4043,10.60544c-16.0176,14.28516-23.877,34.41996-27.8457,53.63577
									C16.9414,178.269,16.498,197.90179,16.5434,216.94189z"/>
								<path fill="#F5A64B" d="M30.7163,216.9351l-14.1729,0.00679c-0.0454-19.0401,0.398-38.6729,4.42-58.12889
									c3.9687-19.21581,11.8281-39.35061,27.8457-53.63577l9.4038,10.60351C45.5112,127.0347,38.4521,144.062,34.8398,161.69679
									C31.1553,179.48779,30.6592,198.063,30.7163,216.9351z"/>
								<path fill="#AE4D2C" d="M44.8891,216.9272l-14.1728,0.0079c-0.0571-18.8721,0.439-37.44731,4.1235-55.23831
									c3.6123-17.6348,10.6714-34.66209,23.3731-45.91605l9.4038,10.60355c-9.3853,8.2207-15.645,22.14249-18.9004,38.19529
									C45.3691,180.7075,44.8198,198.22409,44.8891,216.9272z"/>
							</g>
						</g>
					</g>
				</g>
				<g>
					<g>
						<g>
							<g>
								<path fill="#FADB6C" d="M65.5967,267.44681l14.1738,0.00778c0.0337-19.209-0.3569-39.90039-4.7163-61.01949
									c-4.3252-20.7989-12.9849-44.03911-32.3189-61.35751l-9.4043,10.6035c16.0176,14.28621,23.877,34.42001,27.8457,53.63681
									C65.1987,228.7729,65.6421,248.40579,65.5967,267.44681z"/>
								<path fill="#F5A64B" d="M51.4238,267.439l14.1729,0.00781c0.04539-19.04102-0.398-38.6739-4.42-58.12891
									c-3.9687-19.2168-11.8281-39.3506-27.8457-53.63681l-9.4038,10.60451c12.7017,11.25301,19.7608,28.2813,23.3731,45.9151
									C50.9848,229.99359,51.4809,248.5679,51.4238,267.439z"/>
								<path fill="#AE4D2C" d="M37.251,267.43311l14.1728,0.00589c0.0571-18.87109-0.439-37.4454-4.1235-55.2383
									c-3.6123-17.6338-10.6714-34.66209-23.3731-45.9151l-9.4038,10.60449c9.3853,8.2207,15.645,22.14261,18.9004,38.19341
									C36.771,231.2124,37.3203,248.73,37.251,267.43311z"/>
							</g>
						</g>
					</g>
					<g>
						<g>
							<g>
								<path fill="#FADB6C" d="M108.1162,267.44681l14.1738,0.00778c0.0337-19.209-0.3569-39.90039-4.7163-61.01949
									c-4.3252-20.7989-12.9849-44.03911-32.3188-61.35751l-9.4043,10.6035c16.0175,14.28621,23.8769,34.42001,27.8457,53.63681
									C107.7182,228.7729,108.1616,248.40579,108.1162,267.44681z"/>
								<path fill="#F5A64B" d="M93.9433,267.439l14.1729,0.00781c0.04539-19.04102-0.398-38.6739-4.41991-58.12891
									c-3.9688-19.2168-11.82819-39.3506-27.8457-53.63681l-9.4038,10.60451c12.7016,11.25301,19.7607,28.2813,23.373,45.9151
									C93.5044,229.99359,94.0005,248.5679,93.9433,267.439z"/>
								<path fill="#AE4D2C" d="M79.7705,267.43311l14.1728,0.00589c0.05721-18.87109-0.4389-37.4454-4.1235-55.2383
									c-3.6123-17.6338-10.6714-34.66209-23.373-45.9151l-9.4039,10.60449c9.3853,8.2207,15.6451,22.14261,18.9004,38.19341
									C79.2905,231.2124,79.8398,248.73,79.7705,267.43311z"/>
							</g>
						</g>
					</g>
					<g>
						<g>
							<g>
								<path fill="#FADB6C" d="M150.6357,267.44681l14.1739,0.00778c0.0336-19.209-0.35699-39.90039-4.7164-61.01949
									c-4.3252-20.7989-12.9848-44.03911-32.3188-61.35751l-9.4043,10.6035c16.01759,14.28621,23.877,34.42001,27.8457,53.63681
									C150.23779,228.7729,150.68111,248.40579,150.6357,267.44681z"/>
								<path fill="#F5A64B" d="M136.46291,267.439l14.17279,0.00781c0.04541-19.04102-0.3979-38.6739-4.41989-58.12891
									c-3.9687-19.2168-11.82811-39.3506-27.8457-53.63681l-9.4038,10.60451c12.7016,11.25301,19.7607,28.2813,23.37299,45.9151
									C136.0239,229.99359,136.52,248.5679,136.46291,267.439z"/>
								<path fill="#AE4D2C" d="M122.29,267.43311l14.1729,0.00589c0.0571-18.87109-0.43901-37.4454-4.12361-55.2383
									c-3.61229-17.6338-10.67139-34.66209-23.37299-45.9151l-9.4038,10.60449c9.3852,8.2207,15.645,22.14261,18.9004,38.19341
									C121.81,231.2124,122.3594,248.73,122.29,267.43311z"/>
							</g>
						</g>
					</g>
					<g>
						<g>
							<g>
								<path fill="#FADB6C" d="M193.1553,267.44681l14.1738,0.00778c0.03369-19.209-0.35699-39.90039-4.71631-61.01949
									c-4.3252-20.7989-12.98489-44.03911-32.31889-61.35751l-9.4043,10.6035c16.01759,14.28621,23.877,34.42001,27.8457,53.63681
									C192.75729,228.7729,193.2007,248.40579,193.1553,267.44681z"/>
								<path fill="#F5A64B" d="M178.98241,267.439l14.1729,0.00781c0.04539-19.04102-0.39801-38.6739-4.42-58.12891
									c-3.9687-19.2168-11.82811-39.3506-27.8457-53.63681l-9.40381,10.60451c12.70171,11.25301,19.7608,28.2813,23.37311,45.9151
									C178.5434,229.99359,179.03951,248.5679,178.98241,267.439z"/>
								<path fill="#AE4D2C" d="M164.8096,267.43311l14.17281,0.00589c0.0571-18.87109-0.43901-37.4454-4.1235-55.2383
									c-3.6123-17.6338-10.6714-34.66209-23.37311-45.9151l-9.40379,10.60449c9.3853,8.2207,15.645,22.14261,18.90041,38.19341
									C164.32961,231.2124,164.87891,248.73,164.8096,267.43311z"/>
							</g>
						</g>
					</g>
					<g>
						<g>
							<g>
								<path fill="#FADB6C" d="M235.6748,267.44681l14.1738,0.00778c0.03369-19.209-0.3569-39.90039-4.71631-61.01949
									c-4.3252-20.7989-12.98489-44.03911-32.31879-61.35751l-9.40431,10.6035
									c16.0175,14.28621,23.87691,34.42001,27.8457,53.63681C235.27679,228.7729,235.7202,248.40579,235.6748,267.44681z"/>
								<path fill="#F5A64B" d="M221.50191,267.439l14.1729,0.00781c0.04539-19.04102-0.39801-38.6739-4.41991-58.12891
									c-3.9688-19.2168-11.8282-39.3506-27.8457-53.63681l-9.40379,10.60451c12.7016,11.25301,19.7607,28.2813,23.373,45.9151
									C221.063,229.99359,221.5591,248.5679,221.50191,267.439z"/>
								<path fill="#AE4D2C" d="M207.3291,267.43311l14.17281,0.00589c0.05719-18.87109-0.4389-37.4454-4.1235-55.2383
									c-3.6123-17.6338-10.6714-34.66209-23.373-45.9151l-9.4039,10.60449c9.3853,8.2207,15.6451,22.14261,18.90041,38.19341
									C206.84911,231.2124,207.39841,248.73,207.3291,267.43311z"/>
							</g>
						</g>
					</g>
					<g>
						<g>
							<g>
								<path fill="#F5A64B" d="M264.022,267.439l14.17279,0.00781c0.04541-19.04102-0.39789-38.6739-4.41989-58.12891
									c-3.96881-19.2168-11.82861-39.3506-27.84621-53.63681l-9.40379,10.60451
									c12.7016,11.25301,19.76169,28.2803,23.3735,45.9151C263.58301,229.99269,264.0791,248.5679,264.022,267.439z"/>
								<path fill="#AE4D2C" d="M249.84911,267.43311l14.1729,0.00589c0.0571-18.87109-0.439-37.4463-4.1236-55.2383
									c-3.61182-17.6348-10.67191-34.66209-23.3735-45.9151l-9.40331,10.60449c9.38521,8.2207,15.645,22.14261,18.90041,38.19341
									C249.36909,231.2124,249.9184,248.73,249.84911,267.43311z"/>
							</g>
						</g>
					</g>
				</g>
			</g>
		</g>
	</g>
</g>
</svg>
