<?xml version="1.0" encoding="utf-8"?>
<!-- Generator: Adobe Illustrator 18.1.1, SVG Export Plug-In . SVG Version: 6.00 Build 0)  -->
<svg version="1.1" xmlns="http://www.w3.org/2000/svg" xmlns:xlink="http://www.w3.org/1999/xlink" x="0px" y="0px"
	 viewBox="0 0 238.11031 206.20999" enable-background="new 0 0 238.11031 206.20999" xml:space="preserve">
<g id="Forest">
	<g>
		<polygon fill="#F1F2F2" stroke="#D1D3D4" stroke-width="0.5" points="59.5278,206.20999 0,103.10449 59.5278,-0.00001 
			178.58299,-0.00001 238.11031,103.10449 178.58299,206.20999 		"/>
		<g>
			<defs>
				<polygon id="SVGID_3_" points="66.6138,193.93559 14.1743,103.10549 66.6138,12.27439 171.4971,12.27439 223.93649,103.10549 
					171.4971,193.93559 				"/>
			</defs>
			<clipPath id="SVGID_4_">
				<use xlink:href="#SVGID_3_"  overflow="visible"/>
			</clipPath>
			<g clip-path="url(#SVGID_4_)">
				<path fill="#006032" d="M100.0366,191.48248c0,15.65721-12.6924,28.3486-28.3447,28.3486
					c-15.6582,0-28.3516-12.69139-28.3516-28.3486c0-15.65239,12.6934-28.3438,28.3516-28.3438
					C87.3442,163.13869,100.0366,175.83009,100.0366,191.48248z"/>
				<circle fill="#004B23" cx="193.09377" cy="146.60938" r="14.17285"/>
				<circle fill="#004B23" cx="146.31569" cy="187.72269" r="28.3474"/>
				<circle fill="#004B23" cx="118.53492" cy="102.3321" r="14.1731"/>
				<circle fill="#093A1F" cx="47.18696" cy="110.54591" r="70.8662"/>
				<circle fill="#093A1F" cx="219.44533" cy="107.37309" r="42.5205"/>
				<circle fill="#004B23" cx="219.44533" cy="107.37309" r="28.3467"/>
				<circle fill="#006032" cx="219.44533" cy="107.37309" r="14.17285"/>
				<circle fill="#093A1F" cx="159.71315" cy="55.5547" r="56.69215"/>
				<circle fill="#004B23" cx="47.18647" cy="110.54688" r="56.6929"/>
				<circle fill="#093A1F" cx="107.31226" cy="154.71878" r="42.52075"/>
				<circle fill="#006032" cx="158.18629" cy="121.71876" r="42.5202"/>
				<circle fill="#004B23" cx="107.31226" cy="154.71878" r="28.34695"/>
				<circle fill="#004B23" cx="159.71358" cy="55.5528" r="42.5198"/>
				<circle fill="#008142" cx="158.18654" cy="121.71925" r="28.34723"/>
				<circle fill="#009648" cx="158.18648" cy="121.71931" r="14.17273"/>
				<path fill="#006032" d="M188.0596,55.55279c0,15.6562-12.69141,28.3486-28.3457,28.3486
					c-15.6563,0-28.3477-12.6924-28.3477-28.3486c0-15.65339,12.69141-28.34569,28.3477-28.34569
					C175.36819,27.20709,188.0596,39.89939,188.0596,55.55279z"/>
				<circle fill="#008142" cx="159.71284" cy="55.5528" r="14.17285"/>
				<circle fill="#006032" cx="107.31226" cy="154.71878" r="14.17305"/>
				<circle fill="#006032" cx="47.18696" cy="110.54499" r="42.5205"/>
				<circle fill="#006032" cx="47.18696" cy="110.54499" r="42.5205"/>
				<circle fill="#008142" cx="47.18696" cy="110.54499" r="28.3467"/>
				<circle fill="#009648" cx="47.18659" cy="110.54499" r="14.17335"/>
				<circle fill="#006032" cx="80.30543" cy="9.44974" r="42.52033"/>
				<path fill="#008142" d="M122.6572,68.69049c0,15.6562-12.69189,28.3476-28.3442,28.3476
					c-15.6572,0-28.34869-12.6914-28.34869-28.3476c0-15.6543,12.6915-28.3448,28.34869-28.3448
					C109.9653,40.34569,122.6572,53.03619,122.6572,68.69049z"/>
				<circle fill="#009648" cx="94.31055" cy="68.6905" r="14.17235"/>
				<circle fill="#008142" cx="80.30567" cy="9.44974" r="28.34675"/>
				<circle fill="#009648" cx="80.30567" cy="9.44974" r="14.17318"/>
				<circle fill="#006032" cx="146.31642" cy="187.72269" r="14.1729"/>
				<path fill="#008142" d="M208.4893,178.90529c0,15.6563-12.6915,28.3477-28.34381,28.3477
					c-15.65819,0-28.34959-12.69141-28.34959-28.3477c0-15.6543,12.69141-28.3447,28.34959-28.3447
					C195.79781,150.56059,208.4893,163.25099,208.4893,178.90529z"/>
				<path fill="#009648" d="M194.3154,178.90529c0,7.82809-6.3457,14.1738-14.16991,14.1738
					c-7.83009,0-14.1758-6.3457-14.1758-14.1738c0-7.8262,6.3457-14.17191,14.1758-14.17191
					C187.9697,164.73338,194.3154,171.07909,194.3154,178.90529z"/>
			</g>
		</g>
	</g>
</g>
</svg>
