<?xml version="1.0" encoding="utf-8"?>
<!-- Generator: Adobe Illustrator 18.1.1, SVG Export Plug-In . SVG Version: 6.00 Build 0)  -->
<svg version="1.1" xmlns="http://www.w3.org/2000/svg" xmlns:xlink="http://www.w3.org/1999/xlink" x="0px" y="0px"
	 viewBox="0 0 238.1089 206.20999" enable-background="new 0 0 238.1089 206.20999" xml:space="preserve">
<g id="Ore">
	<g>
		<polygon fill="#F1F2F2" stroke="#D1D3D4" stroke-width="0.5" points="59.5273,206.20995 0,103.10455 59.5273,0.00005 
			178.5815,0.00005 238.1089,103.10455 178.5815,206.20995 		"/>
		<g>
			<defs>
				<polygon id="SVGID_9_" points="67.7109,192.03804 16.3672,103.10455 67.7109,14.17185 170.3999,14.17185 221.74361,103.10455 
					170.3999,192.03804 				"/>
			</defs>
			<clipPath id="SVGID_4_">
				<use xlink:href="#SVGID_9_"  overflow="visible"/>
			</clipPath>
			<g clip-path="url(#SVGID_4_)">
				<polygon fill="#BDB5AA" points="-61.3633,118.51075 -21.2422,17.31835 -7.7266,19.55465 44.3828,-17.97655 101.8672,8.93165 
					187.23779,61.31255 176.25929,77.97165 201.56979,99.46585 107.3652,177.22754 100.9961,179.43654 88.0488,196.80765 
					-13.3262,232.89354 				"/>
				<polygon fill="#68635F" points="-43.043,114.36624 -9.2656,29.17775 -1.211,30.50975 48.9258,-5.60155 98.1484,17.43945 
					170.36079,61.74805 160.5327,76.66305 182.50529,95.32324 103.3242,160.68454 95.25,163.48535 82.2656,180.90524 
					-2.4356,211.05565 				"/>
				<polygon fill="#68635F" points="76.9511,220.95215 71.5312,200.95604 69.0625,199.52054 44.1406,127.48735 120.5918,42.02735 
					165.76511,76.90915 167.19679,77.42875 176.6655,82.11235 198.5542,95.20995 241.4917,154.43845 194.25929,220.49124 
					164.1694,228.77444 141.2905,236.29985 				"/>
				<polygon fill="#68635F" points="75.1972,105.26855 75.375,68.84475 42.5879,-38.40425 167.5014,-35.62305 241.4077,3.45115 
					233.75929,36.42185 252.12839,63.22265 210.8452,124.85255 146.0249,152.72554 				"/>
				<polygon fill="#959387" points="-0.3028,45.02735 2.289,45.45505 50.4551,10.76365 91.4179,29.93755 150.4702,66.17184 
					141.7925,79.34275 160.4292,95.16895 96.2676,148.12985 86.4902,151.52245 73.4668,168.99315 5.4414,193.20804 
					-27.7344,114.21384 				"/>
				<polygon fill="#959387" points="185.65379,208.16115 160.07179,215.20024 140.67529,221.58104 88.4277,209.11815 
					83.6894,191.62985 80.7344,189.91115 60.2597,130.72754 122.3647,61.30275 158.853,89.47755 161.61861,90.48145 
					169.8725,94.56544 188.78461,105.87984 224.02679,154.49515 				"/>
				<polygon fill="#959387" points="89.4082,97.72955 89.5586,66.76075 61.875,-23.79685 163.8374,-21.52735 225.1362,10.88085 
					218.5444,39.29295 235.00929,63.31445 201.3999,113.48534 147.50929,136.65915 				"/>
				<polygon fill="#BDB5AA" points="8.6601,60.87305 13.623,61.69145 15.0449,53.73435 51.9844,27.12895 84.6855,42.43555 
					130.57961,70.59665 123.0522,82.02245 138.3511,95.01665 89.2148,135.57524 77.7304,139.55954 64.6699,157.08104 
					13.3183,175.35844 -12.4278,114.05765 				"/>
				<polygon fill="#BDB5AA" points="177.04829,195.82715 155.9761,201.62794 140.05811,206.86424 99.9062,197.28415 
					95.8437,182.30374 92.4082,180.30565 76.3769,133.96774 124.1382,80.57915 151.9409,102.04594 156.0405,103.53415 
					163.0815,107.01855 179.0132,116.55175 206.562,154.55374 				"/>
				<polygon fill="#BDB5AA" points="103.6172,90.19044 103.7519,62.53715 102.7011,61.26955 81.1601,-9.18945 160.17529,-7.43355 
					208.86279,18.30865 203.32961,42.16215 217.8882,63.40624 191.9565,102.11815 148.9917,120.59475 				"/>
				<polygon fill="#F2EFEB" points="117.8281,82.65134 117.9492,57.46095 115.4238,54.41215 100.4472,5.41605 156.5112,6.66405 
					192.58929,25.73824 188.1147,45.03124 200.769,63.49615 182.5132,90.75294 150.478,104.52835 				"/>
				<polygon fill="#F2EFEB" points="17.625,76.71775 25.1133,77.95415 27.9883,61.87895 53.5156,43.49415 77.9551,54.93165 
					110.6914,75.02245 104.3125,84.70215 116.2754,94.86235 82.1582,123.02245 68.9726,127.59665 55.8711,145.16705 
					21.1933,157.51074 2.8789,113.90335 				"/>
				<polygon fill="#68635F" points="26.5879,92.56345 36.6035,94.21775 40.9297,70.02635 55.0429,59.86135 71.2226,67.43265 
					90.8008,79.44635 85.5703,87.38185 94.1972,94.70605 75.1054,110.46775 60.209,115.63385 47.0742,133.25485 29.0703,139.66304 
					18.1875,113.75095 				"/>
				<path fill="#8D8A83" d="M35.5547,108.40915l11.0078,1.8164l-8.2852,11.1172l-1.3301,0.47269l-3.4492-8.2188L35.5547,108.40915z
					 M56.5742,76.22755l7.918,3.7051l6.4179,3.9394l-4.08,6.1914l5.2871,4.4903l-4.06841,3.3593l-16.5996,5.7579l-2.8125,3.77541
					l5.2344-29.2715L56.5742,76.22755z"/>
				<polygon fill="#F2EFEB" points="168.44279,183.49515 151.8784,188.05565 139.4409,192.14554 111.3808,185.45215 108,172.97754 
					104.082,170.69824 92.4961,137.20995 125.9116,99.85455 145.02679,114.61624 150.4624,116.58884 156.2905,119.47165 
					169.24361,127.22165 189.09911,154.60844 				"/>
				<polygon fill="#68635F" points="132.03661,75.11235 132.146,52.50785 132.19279,52.43945 128.1499,47.55865 119.7344,20.02345 
					152.84711,20.75975 176.3159,33.16795 172.8999,47.90045 183.6479,63.58985 173.0659,79.38575 151.9624,88.46194 				"/>
				<polygon fill="#8D8A83" points="166.5307,63.67965 163.62061,68.01855 153.44479,72.39555 146.2475,67.57135 
					146.30029,56.84965 149.853,51.54685 140.8745,40.70315 139.019,34.63085 149.18311,34.85545 160.0444,40.59765 
					158.76511,46.10745 157.1089,51.36135 160.86861,55.41995 				"/>
				<polygon fill="#68635F" points="159.8374,171.16304 147.77879,174.48145 138.8257,177.42874 122.8589,173.62015 
					120.1582,163.65335 115.7558,161.09085 108.6152,140.45024 127.685,119.13184 138.1147,127.18265 144.8862,129.64165 
					149.4975,131.92485 159.4761,137.89165 171.6362,154.66504 				"/>
				<polygon fill="#8D8A83" points="134.3374,161.78804 133.2261,157.68845 131.58929,153.90135 127.4292,151.48535 
					124.7319,143.68845 129.4565,138.40524 131.20261,139.75294 139.31,142.69635 142.7065,144.37595 149.7065,148.56345 
					154.1694,154.72365 151.2339,158.83104 143.68111,160.90915 138.2085,162.70995 				"/>
			</g>
		</g>
	</g>
</g>
</svg>
