<?xml version="1.0" encoding="utf-8"?>
<!-- Generator: Adobe Illustrator 18.1.1, SVG Export Plug-In . SVG Version: 6.00 Build 0)  -->
<svg version="1.1" xmlns="http://www.w3.org/2000/svg" xmlns:xlink="http://www.w3.org/1999/xlink" x="0px" y="0px"
	 viewBox="0 0 238.1089 206.20999" enable-background="new 0 0 238.1089 206.20999" xml:space="preserve">
<g id="Pasture">
	<g>
		<polygon fill="#F1F2F2" stroke="#D1D3D4" stroke-width="0.5" points="59.52903,206.21019 0.00163,103.10476 59.52903,-0.0002 
			178.58372,-0.0002 238.11102,103.10476 178.58372,206.21019 		"/>
		<polygon fill="#A3DEF4" points="66.61493,193.9368 14.17543,103.10476 66.61493,12.27419 171.49773,12.27419 223.93913,103.10476 
			171.49773,193.9368 		"/>
		<g>
			<defs>
				<polygon id="SVGID_5_" points="66.61493,193.9368 14.17543,103.10476 66.61493,12.27419 171.49773,12.27419 
					223.93913,103.10476 171.49773,193.9368 				"/>
			</defs>
			<clipPath id="SVGID_2_">
				<use xlink:href="#SVGID_5_"  overflow="visible"/>
			</clipPath>
			<g clip-path="url(#SVGID_2_)">
				<g>
					
						<ellipse transform="matrix(0.99681 -0.07977 0.07977 0.99681 -8.43702 6.54972)" fill="#F6F5BC" cx="77.7546" cy="108.86844" rx="95.92587" ry="57.11164"/>
					<g>
						<g>
							<path fill="#82A53E" d="M180.45572,100.95093l14.16388-0.5304c0,0,0.01785,0.47678,0.05247,1.40054
								c0.00865,0.23094,0.01836,0.48981,0.02908,0.77616c0.00536,0.14317,0.01099,0.29322,0.01686,0.45007
								c0.00514,0.16636,0.01572,0.2622,0.0088,0.65434c-0.01358,1.307-0.05646,2.82682-0.15828,4.54062
								c-0.01349,0.21404-0.02716,0.43121-0.04103,0.65148c-0.02066,0.18673-0.0416,0.37609-0.06284,0.56808
								c-0.04604,0.37543-0.09334,0.76111-0.14189,1.15696c-0.10672,0.79055-0.21892,1.6217-0.33649,2.49271
								c-0.29749,1.71509-0.68935,3.57835-1.19292,5.54305c-1.04926,3.91413-2.65511,8.19382-4.88664,12.5769
								c-4.49857,8.73169-11.61751,17.46278-20.68881,24.9521c-9.07198,7.52458-20.05121,13.95334-32.41693,19.00485
								c-12.36812,5.05066-26.14716,8.7388-40.8727,10.72516c-1.84211,0.21922-3.69421,0.49744-5.56413,0.66328
								c-0.93472,0.0891-1.87245,0.17848-2.81313,0.26814l-1.41338,0.13283l-1.59225,0.10951
								c-0.83971,0.05449-1.68197,0.10916-2.52673,0.16399l-1.27108,0.08218l-1.52608,0.05894
								c-2.01621,0.06633-4.14928,0.17548-6.05164,0.15968c-7.80751,0.07347-15.82405-0.35455-23.97809-1.40222
								c-8.15332-1.03584-16.44621-2.78549-24.78209-5.30293c-4.16518-1.31038-8.34541-2.74658-12.5087-4.54852
								c-4.16433-1.76639-8.32209-3.77626-12.42395-6.18808c-8.18215-4.74881-16.30225-10.93132-23.23596-19.49185
								c-3.44353-4.27644-6.54726-9.18892-8.89922-14.69266c-2.35796-5.48795-3.91282-11.56738-4.39934-17.70776l-0.0664-1.26028
								l-0.01337-0.35758l-0.02676-0.71516l-0.05351-1.43029l0.01324-1.29919l0.03745-1.37336
								c0.03176-0.9157,0.07718-1.83118,0.13599-2.74393c0.15675-1.60571,0.36382-3.05316,0.57843-4.58178
								c0.26025-1.48907,0.59516-2.9525,0.92133-4.42207c1.44657-5.80788,3.72946-11.1516,6.44902-15.92139
								c5.48396-9.55456,12.51753-16.94987,19.84034-22.93954c3.6661-3.03349,7.45131-5.67901,11.28172-8.08521
								c3.82373-2.44112,7.72235-4.52384,11.62611-6.47996c7.82941-3.8111,15.73845-6.85732,23.6232-9.1767
								c15.75254-4.65611,31.41631-6.80752,46.11423-7.19817c1.00201-0.04332,1.92234-0.04522,2.84208-0.04813
								c0.92346-0.00382,1.84369-0.00763,2.76061-0.01142c1.83332-0.01242,3.66064,0.0742,5.47011,0.11113
								c3.62299,0.13353,7.19604,0.37596,10.71148,0.71581c7.03113,0.69238,13.83125,1.80862,20.339,3.31907
								c13.0118,3.02065,24.87377,7.62161,35.02691,13.60776c10.14688,5.95143,18.56358,13.43928,24.39343,21.34405
								c2.90016,3.97223,5.16617,7.94183,6.82462,11.63901c0.80965,1.8595,1.4929,3.63658,2.05942,5.28242
								c0.50992,1.68314,0.99904,3.19986,1.32225,4.601c0.31253,1.40643,0.56853,2.6544,0.77911,3.73219
								c0.18346,1.08317,0.27989,2.00676,0.37703,2.74594c0.16953,1.48199,0.25702,2.24689,0.25702,2.24689l-14.12857,1.13132
								c0,0-0.06799-0.57066-0.19971-1.67631c-0.0744-0.55148-0.13893-1.24154-0.27539-2.05064
								c-0.16826-0.80356-0.36319-1.73446-0.58388-2.78831c-0.23767-1.04882-0.62065-2.18504-0.99127-3.45081
								c-0.43083-1.23924-0.94725-2.58002-1.5576-3.99341c-1.2634-2.80971-3.00676-5.86694-5.28082-8.99394
								c-4.58844-6.21703-11.45879-12.43295-20.19244-17.55864c-8.72575-5.14977-19.26227-9.28235-31.03568-12.01197
								c-11.78303-2.73301-24.77269-4.07926-38.51185-3.72502c-13.63847,0.3593-28.07306,2.35975-42.47966,6.6159
								C24.97352,55.33348,10.45414,61.81669-2.25876,72.13727c-6.31929,5.15351-12.151,11.39034-16.50115,18.98023
								c-2.16198,3.78941-3.91849,7.9325-5.01599,12.33643c-0.23737,1.11203-0.49802,2.21865-0.69678,3.34033
								c-0.15075,1.14024-0.31373,2.25222-0.43313,3.41942c-0.06668,1.23299-0.1262,2.51538-0.14777,3.7115l0.12471,3.16149
								c0.36629,4.58469,1.51836,9.11018,3.30684,13.27524c1.78403,4.17325,4.17715,7.98416,6.91432,11.38144
								c5.50192,6.80132,12.25127,12.03127,19.30972,16.11418c14.19242,8.16737,29.55808,12.25903,44.41808,14.23697
								c7.45052,0.95648,14.81807,1.35229,22.01195,1.28448c1.78247,0.01639,3.63412-0.08614,5.44096-0.14058l1.35844-0.04909
								l1.26971-0.08209c0.84476-0.05482,1.68703-0.10948,2.52673-0.16399c3.61638-0.26382,6.98449-0.62076,10.40485-1.07617
								c13.57775-1.82968,26.21892-5.22884,37.40774-9.7997c11.18944-4.56728,20.93463-10.32286,28.73039-16.79471
								c7.80737-6.44936,13.60185-13.67876,17.14313-20.54655c1.74779-3.44894,2.98271-6.7446,3.78308-9.71958
								c0.37776-1.4925,0.67432-2.8984,0.90253-4.19044c0.16583-1.3259,0.35895-2.45267,0.43257-3.60337
								c0.06204-1.16697,0.10117-2.19978,0.12712-3.08968c0.00093-0.7904-0.0397-1.28542-0.0511-1.77157
								C180.47359,101.42771,180.45572,100.95093,180.45572,100.95093z"/>
							<path fill="#9FBC2E" d="M166.29274,101.48129l14.16298-0.53036c0,0,0.01787,0.47678,0.05247,1.40054
								c0.0114,0.48615,0.05203,0.98117,0.0511,1.77157c-0.02596,0.88989-0.06508,1.92271-0.12712,3.08968
								c-0.07362,1.1507-0.26674,2.27747-0.43257,3.60337c-0.22821,1.29204-0.52477,2.69794-0.90253,4.19044
								c-0.80037,2.97498-2.03529,6.27065-3.78308,9.71958c-3.54128,6.8678-9.33575,14.0972-17.14313,20.54655
								c-7.79576,6.47185-17.54095,12.22743-28.73039,16.79471c-11.18882,4.57086-23.82999,7.97002-37.40774,9.7997
								c-3.42036,0.45541-6.78848,0.81235-10.40485,1.07617c-0.83971,0.0545-1.68197,0.10916-2.52673,0.16399l-1.26971,0.08209
								L76.473,173.2384c-1.80683,0.05444-3.65849,0.15697-5.44096,0.14058c-7.19389,0.06781-14.56143-0.328-22.01195-1.28448
								c-14.86-1.97794-30.22566-6.0696-44.41808-14.23697c-7.05846-4.08292-13.8078-9.31287-19.30972-16.11418
								c-2.73717-3.39728-5.13029-7.20819-6.91432-11.38144c-1.78848-4.16505-2.94054-8.69054-3.30684-13.27524l-0.12471-3.16149
								c0.02158-1.19612,0.08109-2.47852,0.14777-3.7115c0.1194-1.1672,0.28238-2.27918,0.43313-3.41942
								c0.19876-1.12168,0.45942-2.2283,0.69678-3.34033c1.0975-4.40393,2.85401-8.54701,5.01599-12.33643
								c4.35015-7.5899,10.18186-13.82672,16.50115-18.98023c12.71289-10.32058,27.23228-16.80378,41.58853-21.11991
								c14.4066-4.25615,28.84119-6.2566,42.47966-6.6159c13.73916-0.35424,26.72882,0.99201,38.51185,3.72502
								c11.77341,2.72962,22.30993,6.86221,31.03568,12.01197c8.73366,5.12569,15.604,11.34162,20.19244,17.55864
								c2.27406,3.12701,4.01743,6.18423,5.28082,8.99394c0.61035,1.41338,1.12677,2.75417,1.5576,3.99341
								c0.37062,1.26576,0.7536,2.40199,0.99127,3.45081c0.22069,1.05386,0.41562,1.98476,0.58388,2.78831
								c0.13646,0.8091,0.20099,1.49916,0.27539,2.05064c0.13171,1.10565,0.19971,1.67631,0.19971,1.67631l-14.12769,1.13124
								c0,0-0.04848-0.37643-0.14238-1.10575c-0.05167-0.36379-0.08429-0.82034-0.17375-1.35539
								c-0.11201-0.53156-0.24178-1.14736-0.38867-1.8445c-0.15211-0.69653-0.42899-1.45228-0.66031-2.30067
								c-0.29515-0.83268-0.64476-1.73719-1.05582-2.70448c-0.86838-1.9223-2.08913-4.0672-3.73714-6.34904
								c-3.34709-4.5294-8.67119-9.47346-15.9917-13.77348c-7.29848-4.31343-16.50962-7.97767-27.04474-10.41629
								c-10.52315-2.4474-22.40595-3.68762-34.90063-3.3636c-12.57909,0.32796-25.78458,2.17743-38.84534,6.03367
								c-6.52773,1.91434-12.96779,4.41924-19.18947,7.44091c-3.08407,1.55184-6.15277,3.18127-9.05984,5.04752
								c-2.92614,1.83704-5.76358,3.82063-8.39702,6.00967c-5.31584,4.3174-9.94576,9.39581-13.16217,15.02119
								c-1.60445,2.8091-2.8346,5.75162-3.58305,8.75169c-0.14858,0.75451-0.33499,1.50436-0.47225,2.25867l-0.28784,2.25713
								c-0.01734,0.67287-0.06719,1.29643-0.10886,2.00663l0.08938,2.55971c0.46912,6.06027,3.06178,11.88217,7.14396,16.91344
								c4.07024,5.04222,9.44891,9.31969,15.38374,12.73671c2.94808,1.74237,6.06487,3.24947,9.24592,4.59776
								c3.16687,1.38017,6.45565,2.50084,9.74727,3.54243c6.62304,1.99374,13.3795,3.44257,20.12858,4.29434
								c6.74705,0.8653,13.46564,1.22888,20.04593,1.16675c1.6626,0.017,3.23285-0.07892,4.83032-0.12148l1.1908-0.03922
								l1.26835-0.082c0.84476-0.05484,1.68703-0.1095,2.52673-0.164l1.14571-0.077l1.19652-0.11449
								c0.79647-0.07579,1.59045-0.15134,2.38187-0.22664c1.58472-0.13625,3.14505-0.37964,4.70279-0.56046
								c12.43005-1.67303,23.9334-4.78322,33.94299-8.87431c10.01324-4.08307,18.52445-9.16551,25.04411-14.58472
								c6.54353-5.40945,11.01363-11.13725,13.59764-16.14126c1.2641-2.51485,2.12813-4.82655,2.67963-6.86245
								c0.25195-1.02033,0.45319-1.9689,0.61212-2.83791c0.0921-0.85709,0.24942-1.70318,0.28294-2.3376
								c0.02226-0.62019,0.05762-1.16602,0.09593-1.63883c0.00826-0.57259-0.03766-1.22504-0.04742-1.66257
								C166.31061,101.95808,166.29274,101.48129,166.29274,101.48129z"/>
							<path fill="#E3DE5A" d="M152.12987,102.01166l14.16287-0.53036c0,0,0.01787,0.47678,0.05249,1.40054
								c0.00977,0.43754,0.05568,1.08999,0.04742,1.66257c-0.03831,0.47281-0.07367,1.01865-0.09593,1.63883
								c-0.03352,0.63442-0.19084,1.48051-0.28294,2.3376c-0.15894,0.869-0.36017,1.81757-0.61212,2.83791
								c-0.5515,2.0359-1.41553,4.3476-2.67963,6.86245c-2.58401,5.00401-7.05411,10.7318-13.59764,16.14126
								c-6.51965,5.4192-15.03087,10.50165-25.04411,14.58472c-10.00958,4.09109-21.51293,7.20128-33.94299,8.87431
								c-1.55774,0.18082-3.11806,0.42421-4.70279,0.56046c-0.79143,0.0753-1.5854,0.15085-2.38187,0.22664l-1.19652,0.11449
								l-1.14571,0.077c-0.83971,0.0545-1.68198,0.10916-2.52673,0.164l-1.26835,0.082l-1.1908,0.03922
								c-1.59747,0.04256-3.16772,0.13847-4.83032,0.12148c-6.58029,0.06213-13.29888-0.30145-20.04593-1.16675
								c-6.74908-0.85178-13.50555-2.3006-20.12858-4.29434c-3.29161-1.0416-6.5804-2.16226-9.74727-3.54243
								c-3.18105-1.3483-6.29784-2.85539-9.24592-4.59776c-5.93483-3.41702-11.31351-7.69449-15.38374-12.73671
								c-4.08218-5.03127-6.67484-10.85316-7.14396-16.91344l-0.08938-2.55971c0.04166-0.7102,0.09151-1.33376,0.10886-2.00663
								l0.28784-2.25713c0.13726-0.75431,0.32367-1.50416,0.47225-2.25867c0.74845-3.00007,1.97861-5.94259,3.58305-8.75169
								c3.21641-5.62537,7.84633-10.70379,13.16217-15.02119c2.63345-2.18904,5.47088-4.17264,8.39702-6.00967
								c2.90707-1.86624,5.97577-3.49567,9.05984-5.04752c6.22168-3.02168,12.66175-5.52657,19.18947-7.44091
								c13.06076-3.85624,26.26625-5.70571,38.84534-6.03367c12.49468-0.32402,24.37749,0.91619,34.90063,3.3636
								c10.53512,2.43862,19.74626,6.10286,27.04474,10.41629c7.32051,4.30001,12.64461,9.24408,15.9917,13.77348
								c1.64801,2.28185,2.86876,4.42674,3.73714,6.34904c0.41106,0.96729,0.76067,1.8718,1.05582,2.70448
								c0.23132,0.8484,0.50819,1.60415,0.66031,2.30067c0.1469,0.69714,0.27666,1.31293,0.38867,1.8445
								c0.08946,0.53506,0.12209,0.9916,0.17375,1.35539c0.0939,0.72932,0.14238,1.10575,0.14238,1.10575l-14.12758,1.13123
								c0,0-0.03926-0.18159-0.08505-0.5352c-0.02895-0.17611-0.02966-0.39912-0.07213-0.66014
								c-0.0697-0.25735-0.1384-0.55611-0.19347-0.90069c-0.31934-1.3647-1.02101-3.3891-3.07684-6.27028
								c-2.10576-2.84178-5.88362-6.51401-11.791-9.98835c-5.87119-3.4771-13.75697-6.67298-23.05379-8.8206
								c-4.64616-1.07867-9.6397-1.90569-14.89429-2.42251c-2.62905-0.25249-5.32018-0.43602-8.06677-0.53809
								c-1.37669-0.02131-2.75861-0.09882-4.1599-0.08426c-0.70031,0.00323-1.40314,0.00648-2.10844,0.00974
								c-0.70909,0.00058-1.42336-0.00028-2.06005,0.03294c-11.51971,0.29662-23.49612,1.99512-35.21104,5.45143
								c-5.84924,1.71184-11.55485,3.94607-16.97269,6.57305c-2.67423,1.34971-5.328,2.75251-7.77675,4.33132
								c-2.47402,1.55247-4.83759,3.20512-6.95473,4.97195c-4.3124,3.48128-7.74054,7.40131-9.82321,11.06216
								c-1.04691,1.82879-1.75072,3.57076-2.15013,5.16697c-0.05978,0.397-0.17195,0.79006-0.24772,1.17701
								c-0.02305,0.36352-0.09784,0.80462-0.14256,1.09486c0.01382,0.04018,0.01424,0.07768,0.00099,0.11503
								c-0.00661,0.01868-0.01664,0.03731-0.03006,0.05622l-0.02267,0.02861l-0.01324,0.01454
								c-0.00589-0.00511-0.00984,0.00737-0.00496,0.08736l0.05351,1.43029l0.02676,0.71516l0.01338,0.35759l0.00668,0.17879
								c-0.02139-0.34303,0.05735,1.02045-0.04628-0.7239c0.12587,1.47353,0.47237,2.89137,1.12199,4.4108
								c0.64827,1.51245,1.62027,3.12038,2.94479,4.75945c2.63855,3.28313,6.64658,6.6081,11.45779,9.35926
								c2.37121,1.40765,4.96754,2.66339,7.65697,3.80264c2.66868,1.16928,5.51176,2.13219,8.36661,3.03941
								c5.76665,1.7319,11.75493,3.0303,17.80193,3.79005c6.04358,0.77411,12.11321,1.10548,18.07993,1.04901
								c1.54271,0.01761,2.83157-0.07169,4.21968-0.10236l1.02318-0.02936l1.26698-0.08192
								c0.84476-0.05482,1.68702-0.1095,2.52673-0.16399l0.6293-0.04085l0.31429-0.0204l0.15706-0.01019
								c0.12529-0.00792-0.51154,0.03549-0.17819,0.0107l1.0881-0.10532c0.72437-0.06885,1.44647-0.13748,2.16625-0.2059
								c1.44214-0.12144,2.85658-0.34743,4.27214-0.50903c11.28236-1.51639,21.6479-4.33759,30.47826-7.94893
								c8.83704-3.59886,16.1143-8.00819,21.35783-12.37473c5.27969-4.36956,8.42542-8.59577,10.0522-11.73601
								c0.78038-1.58078,1.27351-2.90853,1.57614-4.00535c0.12616-0.54816,0.23209-1.03941,0.32176-1.48537
								c0.01822-0.22057,0.04306-0.42939,0.07266-0.62749c0.01633-0.09893,0.03224-0.19531,0.04773-0.28914
								c0.00658-0.04156,0.02142-0.10501,0.02184-0.12675l-0.00894-0.02847c-0.01753-0.07339,0.01407-0.13226,0.06476-0.18799
								c0.02124,0.05152,0.00703-0.18002,0.00218-0.32735c-0.00587-0.15685-0.01151-0.30689-0.01686-0.45007
								c-0.01074-0.28635-0.02043-0.54523-0.02908-0.77617C152.14774,102.48843,152.12987,102.01166,152.12987,102.01166z"/>
						</g>
					</g>
				</g>
				<g>
					<path fill="#F6F5BC" d="M291.96841,130.57739c6.49612,37.0508-32.65619,74.875-87.44919,84.4805
						c-54.791,9.6055-104.47659-12.64259-110.97459-49.69341c-6.4942-37.0468,32.6601-74.87109,87.45309-84.47649
						C235.78873,71.28249,285.47433,93.53059,291.96841,130.57739z"/>
					<g>
						<g>
							<path fill="#82A53E" d="M298.9888,129.61559l14.04263-1.92385c0,0,0.07098,0.518,0.20853,1.52161
								c0.06876,0.50182,0.15414,1.12503,0.25565,1.8656c0.11301,1.12906,0.23297,2.66933,0.3299,4.28891
								c0.13528,1.75797,0.073,3.19722,0.05881,4.97571c0.01465,1.75269-0.19037,3.62895-0.36221,5.66878
								c-0.0704,1.02548-0.25549,2.05515-0.41531,3.13301c-0.17856,1.07036-0.32086,2.19824-0.56732,3.31984
								c-0.48962,2.24591-1.02225,4.63692-1.79794,7.05109c-1.48914,4.85544-3.57205,10.01353-6.38257,15.13409
								c-2.80829,5.11879-6.2869,10.23865-10.40018,15.16859c-8.2233,9.87448-18.96741,18.95937-31.65536,26.49005
								c-12.6866,7.53107-27.32561,13.57532-43.30757,17.42627c-2.00287,0.44695-4.01122,0.9527-6.05043,1.34721
								c-1.01974,0.19704-2.04276,0.39471-3.069,0.593l-1.54222,0.29532l-1.74036,0.28244
								c-0.91084,0.14368-1.82448,0.2878-2.74081,0.43233c-0.48094,0.07217-0.86601,0.14488-1.4276,0.21692l-1.68234,0.21404
								c-2.24828,0.28471-4.54222,0.57626-6.64308,0.73415c-8.60258,0.76869-17.48878,0.94411-26.55806,0.2674
								c-2.26859-0.20856-4.54408-0.35356-6.83209-0.66872c-1.14331-0.14352-2.28883-0.28732-3.43651-0.4314
								c-1.14735-0.18398-2.29686-0.36829-3.44843-0.55293c-2.30296-0.33594-4.61024-0.87234-6.92458-1.31805
								c-1.15515-0.27486-2.31221-0.55019-3.47112-0.82594c-1.15906-0.26604-2.31746-0.56709-3.47505-0.90587
								c-9.26521-2.54108-18.56927-6.17604-27.55473-11.32761c-4.49684-2.54665-8.87919-5.59152-13.08725-9.02357
								c-4.19762-3.45119-8.2272-7.34746-11.82777-11.84021c-3.60693-4.46988-6.81882-9.47057-9.37353-14.90778
								c-2.55904-5.43005-4.44151-11.29077-5.50542-17.27414l-0.54926-3.89702l-0.05356-0.40118l-0.05853-0.65623l-0.10715-1.31438
								l-0.1741-2.6329l-0.06156-1.30107l0.0044-1.13542l0.02625-2.27106c-0.00803-1.51965,0.14893-3.01103,0.27122-4.51051
								c0.55201-5.98254,1.87079-11.77814,3.74178-17.20888c1.85719-5.45012,4.32125-10.48474,7.09422-15.15846
								c2.78951-4.65904,5.8745-9.01352,9.23696-12.93787c6.69701-7.90128,14.20959-14.48459,22.05775-20.02603
								c0.97334-0.71231,1.96013-1.38972,2.95963-2.03405l2.98309-1.95757c2.02473-1.20628,4.01185-2.4958,6.0632-3.59506
								c1.02008-0.56536,2.03832-1.12971,3.05468-1.69301c1.0302-0.52592,2.05847-1.05085,3.08476-1.57477
								c2.04437-1.07464,4.13474-1.98531,6.19713-2.95301c16.60817-7.40008,33.62155-11.5684,49.83096-13.37777
								c16.42857-1.82558,32.18547-1.11511,46.6973,1.64839c14.49289,2.76478,27.68666,7.65199,38.77892,14.13917
								c5.5452,3.23618,10.55826,6.86684,14.94073,10.7246c4.38498,3.85899,8.09888,8.00032,11.15134,12.05951
								c6.16824,8.12852,9.36618,16.05295,11.05151,21.44672c0.40549,1.36607,0.76227,2.57404,1.04276,3.62292
								c0.2326,1.06139,0.42834,1.95459,0.58597,2.67378c0.29883,1.4418,0.45303,2.18594,0.45303,2.18594l-13.96091,2.44727
								c0,0-0.12439-0.58887-0.36539-1.72982c-0.12323-0.56991-0.27625-1.27769-0.45813-2.11877
								c-0.23929-0.82648-0.51651-1.78394-0.83035-2.86785c-1.34598-4.27523-3.84259-10.55081-8.85956-17.15861
								c-2.48438-3.29933-5.52505-6.71062-9.19641-9.94051c-3.66974-3.22744-7.92386-6.31722-12.70734-9.10857
								c-9.56253-5.59561-21.23688-9.96641-34.28595-12.45378c-13.05104-2.49014-27.45702-3.15536-42.4622-1.48441
								c-14.92162,1.66296-30.52263,5.50402-45.61702,12.22936c-7.51669,3.41449-14.95581,7.4449-21.94608,12.44104
								c-7.01146,4.94638-13.63008,10.77456-19.41299,17.59811c-2.91119,3.38988-5.5266,7.10721-7.87814,11.02784
								c-2.33374,3.93237-4.38066,8.11523-5.89043,12.56461c-1.52584,4.43622-2.57996,9.10112-3.02066,13.86865
								c-0.09426,1.19402-0.23307,2.38391-0.21656,3.58821l-0.02155,1.80211l-0.00787,0.90108l0.04938,0.95546l0.12233,1.92111
								l0.06786,0.95988l0.03559,0.47964l0.05241,0.39279l0.46711,3.37091c1.66816,9.51001,6.0269,18.44005,11.93391,25.71202
								c2.93353,3.67007,6.28109,6.90733,9.81358,9.81093c3.54508,2.88675,7.26921,5.49229,11.15984,7.68987
								c7.75934,4.44914,15.96586,7.67812,24.24184,9.94427c8.27301,2.31993,16.63951,3.57947,24.86948,4.23318
								c8.23778,0.61583,16.3575,0.45554,24.23553-0.24789c1.95538-0.14526,3.96075-0.40636,5.94496-0.65337
								c2.04941-0.22626,3.76802-0.55138,5.62068-0.82893l1.48906-0.24048l1.4153-0.27237
								c0.94197-0.18185,1.88098-0.36316,2.81697-0.54387c1.87215-0.36037,3.71117-0.82829,5.54874-1.23515
								c14.64943-3.52625,27.99098-9.05811,39.40988-15.83821c11.4245-6.77853,20.91537-14.8607,28.00345-23.37619
								c3.54834-4.25243,6.49728-8.60539,8.84982-12.88893c2.35355-4.28622,4.05185-8.52875,5.26538-12.47647
								c0.63846-1.96553,1.05548-3.89273,1.45767-5.70134c0.20267-0.90358,0.30518-1.80449,0.45157-2.66246
								c0.12717-0.86261,0.28616-1.68887,0.3342-2.50468c0.12784-1.62463,0.3103-3.1218,0.28674-4.51065
								c0.00754-1.39589,0.06821-2.60614-0.04089-3.84383c-0.07449-1.19196-0.14368-2.2822-0.22076-3.15504
								c-0.10147-0.74059-0.18689-1.3638-0.25565-1.8656C299.05978,130.13359,298.9888,129.61559,298.9888,129.61559z"/>
							<path fill="#9FBC2E" d="M284.94705,131.53932l14.04175-1.92374c0,0,0.07098,0.51801,0.20853,1.52162
								c0.06876,0.5018,0.15417,1.12502,0.25565,1.8656c0.07709,0.87285,0.14627,1.96309,0.22076,3.15504
								c0.1091,1.23769,0.04843,2.44794,0.04089,3.84383c0.02356,1.38885-0.15891,2.88602-0.28674,4.51065
								c-0.04803,0.81581-0.20703,1.64207-0.3342,2.50468c-0.14639,0.85797-0.2489,1.75888-0.45157,2.66246
								c-0.40219,1.80861-0.81921,3.73581-1.45767,5.70134c-1.21353,3.94772-2.91183,8.19025-5.26538,12.47647
								c-2.35254,4.28354-5.30148,8.63651-8.84982,12.88893c-7.08807,8.51549-16.57895,16.59766-28.00345,23.37619
								c-11.4189,6.78011-24.76045,12.31197-39.40988,15.83821c-1.83757,0.40686-3.67659,0.87479-5.54874,1.23515
								c-0.93599,0.18071-1.875,0.36201-2.81697,0.54387l-1.4153,0.27237l-1.48906,0.24048
								c-1.85266,0.27756-3.57127,0.60268-5.62068,0.82893c-1.98421,0.24701-3.98958,0.5081-5.94496,0.65337
								c-7.87804,0.70343-15.99776,0.86372-24.23553,0.24789c-8.22997-0.65372-16.59647-1.91325-24.86948-4.23318
								c-8.27599-2.26616-16.48251-5.49513-24.24184-9.94427c-3.89063-2.19757-7.61476-4.80312-11.15984-7.68987
								c-3.53249-2.90359-6.88006-6.14085-9.81358-9.81093c-5.90701-7.27197-10.26575-16.20201-11.93391-25.71202l-0.46711-3.37091
								l-0.05241-0.39279l-0.03559-0.47964l-0.06786-0.95988l-0.12233-1.92111l-0.04938-0.95546l0.00787-0.90108l0.02155-1.80211
								c-0.01651-1.2043,0.1223-2.3942,0.21656-3.58821c0.4407-4.76753,1.49482-9.43243,3.02066-13.86865
								c1.50977-4.44937,3.55669-8.63223,5.89043-12.56461c2.35154-3.92063,4.96696-7.63796,7.87814-11.02784
								c5.78291-6.82355,12.40154-12.65173,19.41299-17.59811c6.99027-4.99614,14.42939-9.02655,21.94608-12.44104
								c15.09439-6.72534,30.6954-10.5664,45.61702-12.22936c15.00519-1.67096,29.41116-1.00573,42.4622,1.48441
								c13.04907,2.48737,24.72342,6.85817,34.28595,12.45378c4.78348,2.79134,9.0376,5.88113,12.70734,9.10857
								c3.67136,3.2299,6.71204,6.64118,9.19641,9.94051c5.01697,6.6078,7.51358,12.88338,8.85956,17.15861
								c0.31384,1.08391,0.59106,2.04137,0.83035,2.86785c0.18188,0.84107,0.3349,1.54886,0.45813,2.11877
								c0.241,1.14095,0.36539,1.72982,0.36539,1.72982l-13.96005,2.44713c0,0-0.09454-0.43362-0.27768-1.27374
								c-0.08887-0.42064-0.19919-0.94302-0.33029-1.5638c-0.17813-0.60889-0.38446-1.31427-0.61804-2.11282
								c-1.00662-3.15677-2.80194-7.78359-6.66769-12.87077c-1.91635-2.53952-4.28387-5.22082-7.24164-7.82165
								c-2.95706-2.59715-6.45224-5.1461-10.47409-7.49265c-8.03287-4.70409-18.1879-8.55851-29.79324-10.76849
								c-11.59033-2.21679-24.64549-2.83678-38.22739-1.32043c-13.6339,1.51656-27.82262,5.03038-41.40332,11.08103
								c-6.75183,3.07063-13.40434,6.67438-19.54985,11.0747c-6.1748,4.35135-11.89952,9.42445-16.7684,15.17033
								c-2.45994,2.85544-4.6058,5.93567-6.51942,9.11794c-1.89453,3.19106-3.52435,6.52222-4.68671,9.9709
								c-1.18072,3.44176-1.97021,6.97604-2.2996,10.52867c-0.06624,0.88857-0.1869,1.77698-0.16192,2.66594l-0.01683,1.33319
								l-0.01133,0.66676c0.00514,0.21214,0.02609,0.40601,0.0372,0.60986l0.07056,1.20935l0.02858,0.60544l0.01263,0.30305
								l0.05126,0.38441l0.38496,2.84482c1.24659,7.00064,4.41228,13.58098,8.98907,19.24252
								c2.26652,2.84747,4.93212,5.42577,7.79953,7.7818c2.88213,2.34146,5.94808,4.50772,9.23255,6.35622
								c6.5333,3.74677,13.64236,6.56978,20.92918,8.56104c7.27597,2.04704,14.75758,3.17296,22.15134,3.76352
								c7.40634,0.55493,14.75964,0.40977,21.91316-0.22842c1.80991-0.13261,3.52672-0.36325,5.24689-0.57257
								c1.66344-0.16916,3.59596-0.52536,5.39063-0.79457l1.23778-0.19855l1.28839-0.2494
								c0.8577-0.16544,1.71271-0.33035,2.56496-0.49475c1.70509-0.32623,3.37477-0.75635,5.04707-1.12309
								c13.31697-3.20158,25.36118-8.22108,35.51244-14.25027c10.16113-6.02641,18.39883-13.10594,24.35178-20.26253
								c2.98343-3.57495,5.40271-7.16104,7.29959-10.60941c1.89658-3.45195,3.21027-6.77896,4.14819-9.81902
								c1.90601-6.06599,2.01443-11.13484,1.89465-14.29781c-0.04218-0.76395-0.07944-1.43877-0.1116-2.02127
								c-0.1015-0.74057-0.18689-1.36378-0.25568-1.86559C285.01807,132.05733,284.94705,131.53932,284.94705,131.53932z"/>
							<path fill="#E3DE5A" d="M270.90543,133.46304l14.04163-1.92372c0,0,0.07101,0.51801,0.20853,1.52162
								c0.06879,0.5018,0.15417,1.12502,0.25568,1.86559c0.03217,0.5825,0.06943,1.25732,0.1116,2.02127
								c0.11978,3.16296,0.01135,8.23181-1.89465,14.29781c-0.93793,3.04005-2.25162,6.36707-4.14819,9.81902
								c-1.89688,3.44836-4.31616,7.03445-7.29959,10.60941c-5.95294,7.15659-14.19064,14.23611-24.35178,20.26253
								c-10.15126,6.02919-22.19547,11.04869-35.51244,14.25027c-1.6723,0.36674-3.34198,0.79686-5.04707,1.12309
								c-0.85225,0.1644-1.70726,0.32932-2.56496,0.49475l-1.28839,0.2494l-1.23778,0.19855
								c-1.79466,0.26921-3.72719,0.62541-5.39063,0.79457c-1.72017,0.20932-3.43698,0.43996-5.24689,0.57257
								c-7.15352,0.6382-14.50682,0.78336-21.91316,0.22842c-7.39375-0.59056-14.87537-1.71648-22.15134-3.76352
								c-7.28682-1.99126-14.39587-4.81427-20.92918-8.56104c-3.28447-1.8485-6.35042-4.01476-9.23255-6.35622
								c-2.86741-2.35603-5.53301-4.93433-7.79953-7.7818c-4.57679-5.66154-7.74249-12.24188-8.98907-19.24252l-0.38496-2.84482
								l-0.05126-0.38441l-0.01263-0.30305l-0.02858-0.60544l-0.07056-1.20935c-0.01111-0.20386-0.03206-0.39772-0.0372-0.60986
								l0.01133-0.66676l0.01683-1.33319c-0.02498-0.88896,0.09568-1.77737,0.16192-2.66594
								c0.32938-3.55263,1.11888-7.08691,2.2996-10.52867c1.16237-3.44868,2.79218-6.77985,4.68671-9.9709
								c1.91361-3.18227,4.05948-6.2625,6.51942-9.11794c4.86888-5.74589,10.5936-10.81898,16.7684-15.17033
								c6.14551-4.40032,12.79802-8.00407,19.54985-11.0747c13.5807-6.05065,27.76942-9.56448,41.40332-11.08103
								c13.58189-1.51635,26.63705-0.89635,38.22739,1.32043c11.60535,2.20998,21.76038,6.0644,29.79324,10.76849
								c4.02185,2.34655,7.51703,4.89549,10.47409,7.49265c2.95776,2.60083,5.32529,5.28213,7.24164,7.82165
								c3.86575,5.08718,5.66107,9.714,6.66769,12.87077c0.23358,0.79855,0.43991,1.50393,0.61804,2.11282
								c0.1311,0.62077,0.24142,1.14316,0.33029,1.5638c0.18314,0.84012,0.27768,1.27374,0.27768,1.27374l-13.95993,2.4471
								c0,0-0.0647-0.27835-0.19003-0.81766c-0.05444-0.27135-0.12207-0.60835-0.20245-1.00882
								c-0.11691-0.39131-0.25235-0.84462-0.40567-1.3578c-0.6673-2.03831-1.76132-5.01639-4.47589-8.58296
								c-1.3483-1.77971-3.04266-3.73103-5.28687-5.70279c-2.24438-1.96689-4.98065-3.97498-8.24084-5.87673
								c-6.50322-3.81259-15.13896-7.15063-25.30058-9.08323c-10.12965-1.94345-21.83398-2.5182-33.9926-1.15646
								c-12.34618,1.37016-25.12263,4.55674-37.18965,9.93271c-5.987,2.72676-11.85287,5.90386-17.15363,9.70837
								c-5.33817,3.75633-10.16898,8.07435-14.12384,12.74258c-2.00868,2.32101-3.68501,4.76413-5.1607,7.20804
								c-1.45533,2.44977-2.66804,4.92923-3.483,7.37724c-0.83559,2.44731-1.36046,4.85097-1.57854,7.18867
								c-0.03821,0.58311-0.14072,1.17006-0.10727,1.7437l-0.01212,0.86427l-0.01479,0.43243
								c0.00296,0.1143,0.01944,0.17451,0.02502,0.26428c0.01524,0.16557,0.02148,0.33098,0.01878,0.49759l-0.0107,0.25099
								l-0.01031,0.12648l0.05012,0.37602l0.21289,1.55394l0.10645,0.77699l0.05323,0.3885l0.02661,0.19424
								c-0.04598-0.28725,0.14052,0.91742-0.09637-0.59492c0.82503,4.49127,2.79768,8.72194,6.04426,12.77307
								c1.59952,2.02487,3.58316,3.94418,5.78548,5.75266c2.21921,1.7962,4.62698,3.52316,7.30528,5.02261
								c5.30727,3.04437,11.31888,5.46144,17.61653,7.17778c6.27895,1.77415,12.87569,2.76646,19.43323,3.29385
								c6.57491,0.49403,13.16179,0.36401,19.59081-0.20892c1.66443-0.12,3.0927-0.32018,4.54881-0.49179l1.09206-0.12662
								c0.36194-0.0408,0.89131-0.13608,1.3277-0.20128c0.91634-0.14455,1.82997-0.28867,2.74081-0.43234l0.68262-0.10768
								l0.34093-0.05377l0.17035-0.02687c0.13899-0.02168-0.57948,0.09448-0.20738,0.03174l1.16147-0.22646
								c0.77342-0.149,1.54443-0.29755,2.31294-0.44562c1.53804-0.29211,3.03839-0.68439,4.54541-1.01105
								c11.98453-2.87691,22.73138-7.38406,31.61504-12.66234c8.89774-5.27431,15.88232-11.35121,20.7001-17.14888
								c2.41852-2.89748,4.30817-5.71674,5.74936-8.32991c1.43967-2.61766,2.36871-5.02917,3.03107-7.16156
								c0.36407-1.0683,0.54987-2.06798,0.77722-3.00206c0.11511-0.46754,0.138-0.91455,0.22009-1.34776
								c0.06192-0.43214,0.1687-0.85161,0.17197-1.24809c0.03979-0.79433,0.17722-1.53336,0.13583-2.19458
								c-0.00577-0.63077,0.05167-1.38303-0.0051-1.58022c-0.0296-0.33676,0.00278-0.52699-0.0025-0.88748
								c-0.10147-0.74057-0.18689-1.36378-0.25565-1.86559C270.97641,133.98105,270.90543,133.46304,270.90543,133.46304z"/>
						</g>
					</g>
				</g>
				<g>
					<path fill="#F6F5BC" d="M225.97043,193.93489c0,38.3652-66.2422,69.4648-147.9512,69.4648
						c-81.7129,0-147.9536-31.09959-147.9536-69.4648c0-38.3633,66.2407-69.4629,147.9536-69.4629
						C159.72823,124.47199,225.97043,155.57159,225.97043,193.93489z"/>
					<g>
						<g>
							<path fill="#82A53E" d="M233.04613,194.31575l14.15332,0.76181c0,0-0.03705,0.68797-0.10884,2.02092
								c-0.01794,0.33324-0.03807,0.70679-0.06032,1.11996c0.0087,0.23077-0.11781,1.30371-0.23631,2.22002
								c-0.123,0.95087-0.27118,1.97714-0.45164,3.07275c-0.09537,0.54634-0.19394,1.11107-0.2957,1.69403
								c-0.05176,0.31371-0.11343,0.53642-0.1749,0.77962c-0.06219,0.24286-0.12532,0.48938-0.18939,0.73956
								c-0.53577,1.98621-1.07629,4.27696-2.00397,6.54935c-0.44591,1.14787-0.88469,2.39273-1.43216,3.59265
								c-0.56233,1.18228-1.16101,2.40868-1.79755,3.67409c-2.62361,4.9355-6.14848,10.04425-10.49593,14.85942
								c-8.72525,9.59656-20.48891,17.99706-34.2805,24.93143c-13.81082,6.95276-29.72221,12.51404-47.22829,16.57291
								c-17.50555,4.06329-36.61798,6.64862-56.83142,7.46463c-2.52617,0.07657-5.0708,0.21686-7.62951,0.22092
								c-1.27962,0.01517-2.56336,0.03043-3.85114,0.04568l-1.93468,0.02194l-2.08376-0.01913
								c-1.21503-0.0144-2.43375-0.0289-3.65611-0.0434c-1.22309-0.01483-2.41109-0.01947-3.81578-0.07846
								c-2.68712-0.10492-5.47032-0.16132-8.12124-0.31998c-10.61148-0.55005-21.45324-1.62183-32.44801-3.33865
								c-10.99353-1.72882-22.14414-4.05826-33.35238-7.29453c-11.20141-3.28879-22.48213-7.31256-33.64581-12.88135
								c-5.57919-2.78226-11.1398-5.86795-16.59467-9.60089c-5.45189-3.71196-10.82921-7.94658-15.90987-13.08694
								c-5.05719-5.1376-9.87312-11.2339-13.59514-18.68333l-1.35916-2.8123c-0.40578-0.98784-0.7907-1.99504-1.17218-2.99818
								c-0.36456-1.01794-0.78462-1.98457-1.0753-3.05338l-0.8748-3.18814l-0.41107-1.60052
								c-0.11671-0.54274-0.20351-1.10019-0.3018-1.65092c-0.18964-1.105-0.36641-2.21312-0.52995-3.32196
								c-0.29913-2.22183-0.34425-4.49915-0.44421-6.74815c0.06575-2.3714,0.0262-0.80553,0.04448-1.4016l0.01389-0.258
								l0.02779-0.51598l0.05559-1.03195l0.05557-1.03192l0.03345-0.54936l0.11523-0.99731
								c0.16113-1.33015,0.35266-2.66122,0.5737-3.98488c0.11147-0.6492,0.22615-1.35004,0.35535-1.95067l0.41106-1.60057
								l0.87477-3.18825c0.29031-1.06915,0.71065-2.03557,1.07512-3.05362c0.38141-1.00325,0.76654-2.01022,1.17203-2.99843
								l1.35918-2.81235c3.72191-7.4498,8.53784-13.54631,13.59503-18.68404c5.08066-5.14049,10.45799-9.37518,15.90988-13.08719
								c5.45487-3.733,11.0155-6.81859,16.59467-9.60097c11.16368-5.56876,22.44438-9.59264,33.64577-12.88139
								c11.20821-3.23637,22.35881-5.5658,33.35233-7.29467c21.96343-3.42714,43.42436-4.30655,63.45992-3.51441
								c2.64094,0.07002,5.10799,0.24752,7.60747,0.39101c2.49152,0.12646,4.96433,0.34214,7.41843,0.55099
								c2.45448,0.1856,4.8889,0.43699,7.30341,0.71015c1.2073,0.13135,2.40975,0.26216,3.60727,0.39243
								c1.19663,0.15839,2.38833,0.31612,3.57502,0.47318c9.49302,1.25637,18.64672,2.91689,27.40009,4.94958
								c17.50606,4.0587,33.41743,9.61987,47.22829,16.57228c13.79163,6.93415,25.55539,15.33413,34.28088,24.93046
								c4.34756,4.81499,7.87262,9.92357,10.49643,14.85901c0.63657,1.26541,1.23529,2.49182,1.79765,3.67412
								c0.54758,1.19983,0.98636,2.44478,1.4323,3.59265c0.92773,2.2724,1.4684,4.56316,2.00418,6.54944
								c0.28221,0.9884,0.45065,1.96484,0.60182,2.88188c0.14755,0.91591,0.28517,1.77016,0.41269,2.56171
								c0.28096,1.57608,0.31052,2.94327,0.38536,4.03336c0.12102,2.18546,0.14815,3.31299,0.14815,3.31299h-14.1738
								c0,0-0.04152-0.83458-0.12195-2.45157c-0.0576-0.80672-0.05696-1.81857-0.28288-2.98921
								c-0.095-0.58795-0.19753-1.22249-0.30745-1.9028c-0.10786-0.68141-0.22395-1.4082-0.44705-2.14975
								c-0.41783-1.48874-0.78706-3.20079-1.51451-4.93405c-0.345-0.87376-0.66158-1.81758-1.08595-2.74117
								c-0.44655-0.91023-0.9115-1.85796-1.3945-2.84245c-2.05328-3.84439-4.84955-7.93781-8.45135-11.93425
								c-7.23441-7.96706-17.54768-15.46059-30.147-21.78709c-12.60297-6.3503-27.50159-11.59326-44.07495-15.43087
								c-16.58444-3.84772-34.80031-6.32511-54.21229-7.10754c-19.29469-0.76505-39.82035,0.08815-60.76009,3.35423
								c-20.90812,3.31728-42.42183,8.80618-62.87714,18.86526c-5.09482,2.54034-10.13136,5.33708-14.95362,8.64345
								c-4.82641,3.28525-9.49237,6.97868-13.7587,11.29666c-4.25273,4.3138-8.12721,9.285-11.00592,15.0564l-1.06042,2.17296
								l-0.88301,2.28531c-0.27284,0.77226-0.61456,1.51103-0.82144,2.3138l-0.65146,2.39238l-0.31697,1.19839
								c-0.09045,0.42456-0.15767,0.88649-0.23392,1.32904l-0.41151,2.68832l-0.09349,0.67245l-0.03221,0.52681l-0.05557,1.03194
								l-0.12125,2.44507c0.01875,6.70441,1.80014,13.3156,4.68233,19.05591c2.87885,5.77122,6.75337,10.74232,11.00613,15.05605
								c4.26637,4.3179,8.93234,8.01129,13.75877,11.29651c4.82227,3.30632,9.85878,6.10316,14.95363,8.6434
								c20.45533,10.05902,41.96908,15.54788,62.87721,18.86505c10.47209,1.6355,20.83667,2.66171,30.9958,3.18814
								c2.53848,0.15256,5.11541,0.2009,7.64907,0.30341c2.54987,0.09592,4.92904,0.07672,7.37938,0.12045
								c5.06301,0.01758,9.90179-0.05472,14.76262-0.25903c19.35851-0.78049,37.61303-3.25946,54.18551-7.10687
								c16.57333-3.83777,31.47197-9.0808,44.07483-15.43138c12.59926-6.32672,22.91232-13.82065,30.14656-21.78787
								c3.60167-3.99658,6.39778-8.0901,8.45093-11.93457c0.48297-0.9845,0.94791-1.93222,1.39444-2.84247
								c0.42426-0.92363,0.74089-1.8674,1.08583-2.74118c0.72743-1.73326,1.09656-3.44533,1.5144-4.93404
								c0.09344-0.3848,0.20827-0.71533,0.27367-1.11411c0.06631-0.39439,0.13057-0.77646,0.19273-1.14609
								c0.11456-0.74121,0.22141-1.43256,0.32042-2.07314c0.23289-1.399,0.19995-2.05415,0.25328-2.7581
								C233.00908,195.00372,233.04613,194.31575,233.04613,194.31575z"/>
							<path fill="#9FBC2E" d="M218.89372,193.55399l14.1524,0.76176c0,0-0.03705,0.68797-0.10884,2.02092
								c-0.05333,0.70395-0.02039,1.3591-0.25328,2.7581c-0.09901,0.64058-0.20586,1.33192-0.32042,2.07314
								c-0.06216,0.36963-0.12642,0.75169-0.19273,1.14609c-0.0654,0.39877-0.18022,0.72931-0.27367,1.11411
								c-0.41785,1.48871-0.78697,3.20078-1.5144,4.93404c-0.34494,0.87378-0.66158,1.81755-1.08583,2.74118
								c-0.44653,0.91025-0.91147,1.85797-1.39444,2.84247c-2.05315,3.84447-4.84926,7.93799-8.45093,11.93457
								c-7.23424,7.96722-17.5473,15.46115-30.14656,21.78787c-12.60286,6.35059-27.5015,11.59361-44.07483,15.43138
								c-16.57248,3.84741-34.827,6.32639-54.18551,7.10687c-4.86082,0.20432-9.69961,0.27661-14.76262,0.25903
								c-2.45034-0.04373-4.82951-0.02454-7.37938-0.12045c-2.53366-0.10251-5.11059-0.15085-7.64907-0.30341
								c-10.15913-0.52643-20.52371-1.55264-30.9958-3.18814c-20.90813-3.31717-42.42188-8.80603-62.87721-18.86505
								c-5.09485-2.54024-10.13136-5.33708-14.95363-8.6434c-4.82642-3.28522-9.49239-6.97861-13.75877-11.29651
								c-4.25276-4.31372-8.12729-9.28482-11.00613-15.05605c-2.88219-5.74031-4.66357-12.3515-4.68233-19.05591l0.12125-2.44507
								l0.05557-1.03194l0.03221-0.52681l0.09349-0.67245l0.41151-2.68832c0.07625-0.44255,0.14346-0.90448,0.23392-1.32904
								l0.31697-1.19839l0.65146-2.39238c0.20688-0.80276,0.5486-1.54153,0.82144-2.3138l0.88301-2.28531l1.06042-2.17296
								c2.87871-5.77139,6.75319-10.7426,11.00592-15.0564c4.26633-4.31798,8.93229-8.01141,13.7587-11.29666
								c4.82227-3.30637,9.8588-6.1031,14.95362-8.64345c20.45531-10.05908,41.96902-15.54798,62.87714-18.86526
								c20.93974-3.26608,41.4654-4.11928,60.76009-3.35423c19.41198,0.78243,37.62785,3.25983,54.21229,7.10754
								c16.57336,3.83761,31.47198,9.08057,44.07495,15.43087c12.59932,6.32651,22.9126,13.82004,30.147,21.78709
								c3.60181,3.99644,6.39807,8.08986,8.45135,11.93425c0.483,0.9845,0.94795,1.93222,1.3945,2.84245
								c0.42438,0.92358,0.74095,1.8674,1.08595,2.74117c0.72745,1.73326,1.09668,3.44531,1.51451,4.93405
								c0.2231,0.74155,0.33919,1.46834,0.44705,2.14975c0.10992,0.68031,0.21245,1.31485,0.30745,1.9028
								c0.22592,1.17064,0.22528,2.1825,0.28288,2.98921c0.08043,1.61699,0.12195,2.45157,0.12195,2.45157h-14.17291
								c0,0-0.03259-0.54135-0.09573-1.59019c-0.00302-1.05165-0.24002-2.60114-0.67491-4.60674
								c-0.2999-0.99124-0.4977-2.12462-1.0249-3.31877c-0.24403-0.59967-0.43842-1.24239-0.73959-1.88972
								c-0.31747-0.64394-0.64801-1.31438-0.99138-2.01085c-1.4828-2.75343-3.55032-5.83174-6.4064-9.00969
								c-5.74344-6.33788-14.60634-12.92502-26.0134-18.64394c-11.39516-5.74821-25.28111-10.67297-40.92183-14.28952
								c-15.62756-3.63095-33.0629-6.00494-51.51306-6.74777c-18.55387-0.73795-38.14432,0.08904-58.06044,3.19406
								c-9.94428,1.56361-19.96663,3.66306-29.85663,6.52025c-9.86484,2.89528-19.67188,6.41829-28.89983,11.03429
								c-9.23143,4.55118-17.97315,10.21132-24.92031,17.19225c-3.44833,3.4899-6.38142,7.33589-8.41698,11.429l-0.76169,1.53358
								l-0.59402,1.57225c-0.1812,0.52647-0.44431,1.03763-0.56778,1.57401l-0.42816,1.59656l-0.22289,0.79626
								c-0.0517,0.2485-0.07147,0.47154-0.1125,0.70744c-0.07317,0.46545-0.15617,0.92848-0.24933,1.39185l-0.07173,0.34761
								l-0.03098,0.50429l-0.05557,1.03194l-0.05559,1.03194l-0.02779,0.51598l-0.01389,0.258
								c0-0.08405-0.01965,0.55261-0.00351-0.12323c0.03369,4.33885,1.15392,8.64795,3.19626,12.73865
								c2.03572,4.09312,4.96892,7.93909,8.41731,11.42897c6.94734,6.98083,15.68899,12.64105,24.92047,17.19215
								c9.22793,4.61603,19.03502,8.13893,28.89984,11.03423c9.89003,2.8571,19.91236,4.95657,29.85665,6.52014
								c9.94944,1.55414,19.83688,2.53482,29.54369,3.0376c2.42604,0.14644,4.79671,0.18672,7.17694,0.28682
								c2.36499,0.09311,4.87778,0.07593,7.28687,0.11905c4.65697,0.01486,9.42208-0.05255,14.0262-0.24866
								c18.50364-0.74495,35.9003-3.11757,51.53976-6.7491c15.64067-3.61667,29.52658-8.54152,40.92159-14.28996
								c11.40697-5.71909,20.26958-12.30652,26.01288-18.6445c2.85596-3.17804,4.92336-6.25641,6.40605-9.0099
								c0.34337-0.69649,0.6739-1.36696,0.99136-2.01089c0.30107-0.64737,0.49553-1.29008,0.73953-1.88977
								c0.52721-1.19417,0.7249-2.32759,1.02484-3.31885c0.05981-0.242,0.15891-0.50595,0.18306-0.70905
								c0.0309-0.20584,0.06082-0.40524,0.08977-0.59816c0.06766-0.38385,0.13075-0.74187,0.18922-1.07361
								c0.16391-0.5368,0.16528-1.55011,0.20995-2.17627C218.85667,194.24196,218.89372,193.55399,218.89372,193.55399z"/>
							<path fill="#E3DE5A" d="M204.74141,192.79222l14.15231,0.76176c0,0-0.03705,0.68797-0.10884,2.0209
								c-0.04466,0.62616-0.04604,1.63947-0.20995,2.17627c-0.05847,0.33174-0.12157,0.68976-0.18922,1.07361
								c-0.02895,0.19292-0.05887,0.39232-0.08977,0.59816c-0.02415,0.20309-0.12325,0.46704-0.18306,0.70905
								c-0.29994,0.99126-0.49763,2.12468-1.02484,3.31885c-0.244,0.59969-0.43846,1.2424-0.73953,1.88977
								c-0.31746,0.64394-0.64799,1.31441-0.99136,2.01089c-1.4827,2.75349-3.55009,5.83186-6.40605,9.0099
								c-5.7433,6.33798-14.60591,12.92542-26.01288,18.6445c-11.395,5.74844-25.28091,10.67329-40.92159,14.28996
								c-15.63946,3.63153-33.03612,6.00415-51.53976,6.7491c-4.60412,0.19611-9.36923,0.26352-14.0262,0.24866
								c-2.40908-0.04312-4.92188-0.02594-7.28687-0.11905c-2.38023-0.1001-4.75089-0.14038-7.17694-0.28682
								c-9.7068-0.50278-19.59424-1.48346-29.54369-3.0376c-9.9443-1.56357-19.96662-3.66304-29.85665-6.52014
								c-9.86482-2.89529-19.67191-6.4182-28.89984-11.03423c-9.23149-4.5511-17.97313-10.21132-24.92047-17.19215
								c-3.44839-3.48988-6.38159-7.33585-8.41731-11.42897c-2.04234-4.0907-3.16257-8.3998-3.19626-12.73865
								c-0.01614,0.67584,0.00351,0.03918,0.00351,0.12323l0.01389-0.258l0.02779-0.51598l0.05559-1.03194l0.05557-1.03194
								l0.03098-0.50429l0.07173-0.34761c0.09315-0.46336,0.17616-0.92639,0.24933-1.39185
								c0.04103-0.2359,0.06081-0.45894,0.1125-0.70744l0.22289-0.79626l0.42816-1.59656
								c0.12347-0.53638,0.38658-1.04753,0.56778-1.57401l0.59402-1.57225l0.76169-1.53358
								c2.03557-4.09311,4.96866-7.9391,8.41698-11.429c6.94717-6.98093,15.68888-12.64107,24.92031-17.19225
								c9.22794-4.616,19.03499-8.13901,28.89983-11.03429c9.89-2.85719,19.91234-4.95663,29.85663-6.52025
								c19.91612-3.10503,39.50657-3.93201,58.06044-3.19406c18.45016,0.74283,35.8855,3.11682,51.51306,6.74777
								c15.64072,3.61655,29.52667,8.54131,40.92183,14.28952c11.40706,5.71892,20.26996,12.30606,26.0134,18.64394
								c2.85608,3.17795,4.9236,6.25626,6.4064,9.00969c0.34337,0.69647,0.6739,1.36691,0.99138,2.01085
								c0.30118,0.64734,0.49556,1.29005,0.73959,1.88972c0.52721,1.19415,0.72501,2.32753,1.0249,3.31877
								c0.43489,2.0056,0.67189,3.55508,0.67491,4.60674c0.06314,1.04884,0.09573,1.59019,0.09573,1.59019h-14.17279
								c0,0-0.047-0.2484-0.06955-0.72884c-0.02312-0.24005,0.03793-0.54126-0.07793-0.90106
								c-0.03719-0.17986-0.0706-0.37444-0.09698-0.58511c-0.02124-0.21017-0.03267-0.43768-0.13751-0.68555
								c-0.18198-0.49374-0.20834-1.04846-0.53528-1.70349c-0.14311-0.32559-0.21529-0.66721-0.39326-1.03828
								c-0.20169-0.3719-0.39847-0.7637-0.58827-1.17928c-0.91232-1.66248-2.2511-3.72566-4.36147-6.08511
								c-4.25247-4.70872-11.66499-10.38948-21.87982-15.50081c-10.18735-5.14615-23.06062-9.75272-37.76872-13.14819
								c-7.35289-1.70697-15.16476-3.12854-23.34378-4.21054c-1.02229-0.13626-2.0489-0.2731-3.07977-0.41052
								c-1.03645-0.11179-2.07717-0.22404-3.12208-0.33676c-2.08772-0.23758-4.19584-0.45728-6.33126-0.61555
								c-2.13152-0.18118-4.27815-0.3727-6.4523-0.47925c-2.16351-0.12315-4.38959-0.28613-6.48466-0.33537
								c-1.06374-0.03893-2.13112-0.07797-3.20204-0.11716l-1.63195-0.05606l-1.79693-0.02133
								c-1.19989-0.01425-2.40365-0.02853-3.61119-0.04288l-1.81415-0.02153l-1.45692,0.01889
								c-4.53889,0.0233-9.12746,0.15581-13.75605,0.38673c-9.25447,0.47919-18.66477,1.41438-28.09157,2.88722
								c-9.41969,1.48099-18.87793,3.46545-28.10884,6.13306c-9.19659,2.69855-18.26684,5.97113-26.52695,10.11076
								c-8.28026,4.05415-15.81179,9.07903-21.12834,14.4444c-2.64392,2.66602-4.63563,5.3868-5.82806,7.80162
								c-0.14629,0.30167-0.30043,0.59935-0.46295,0.89424c-0.10074,0.29147-0.19311,0.57684-0.30503,0.85918
								c-0.08958,0.28072-0.27409,0.56422-0.31413,0.83423c-0.05685,0.27072-0.12493,0.53697-0.20487,0.80077l-0.12881,0.3941
								c-0.01293,0.07246,0.01474,0.05661,0.00893,0.08586c0.00076,0.03638-0.02799,0.0654-0.08714,0.09537l-0.04999,0.0228
								c-0.01318,0.10361-0.01961,0.32501-0.02975,0.48174l-0.05558,1.03194l-0.05557,1.03194l-0.02779,0.51599l-0.01389,0.25798
								c0.00914-0.42409-0.0401,1.31378,0.01699-0.88562c0.04861,1.97334,0.50768,3.98035,1.71019,6.42143
								c1.19262,2.41504,3.18449,5.13589,5.82851,7.80196c5.31683,5.36539,12.84826,10.3903,21.12859,14.4444
								c8.26009,4.13965,17.33039,7.41214,26.52695,10.1107c9.23095,2.66753,18.68916,4.65201,28.10886,6.13295
								c9.4268,1.47279,18.8371,2.40796,28.09158,2.8871c2.31361,0.14035,4.47802,0.17255,6.7048,0.27025
								c1.05232,0.05321,2.31667,0.05971,3.53825,0.07425c1.22234,0.01451,2.44107,0.02898,3.65611,0.0434l1.55575,0.01614
								l1.6936-0.02113c1.12731-0.01338,2.25108-0.02673,3.37125-0.04004c2.24215,0.00146,4.46103-0.12946,6.66918-0.19325
								c17.64877-0.70944,34.18758-2.97569,48.89401-6.39136c14.70802-3.3956,27.58124-8.00223,37.76837-13.14856
								c10.21471-5.11145,17.62683-10.79237,21.87921-15.50113c2.11026-2.35951,3.44894-4.42274,4.36121-6.08528
								c0.18982-0.41559,0.38661-0.8074,0.5883-1.17932c0.17786-0.37111,0.25015-0.71275,0.39323-1.03836
								c0.32697-0.65509,0.35326-1.20985,0.53528-1.70364l0.06003-0.18199c0.02036-0.05946,0.04865-0.1328,0.03244-0.12202
								c-0.00998-0.01901-0.0141-0.03546-0.01321-0.05023c0.00175-0.0295,0.02354-0.0526,0.05803-0.07407
								c0.09491,0.32536,0.13062-1.04608,0.1666-1.59444C204.70435,193.48019,204.74141,192.79222,204.74141,192.79222z"/>
						</g>
					</g>
				</g>
			</g>
		</g>
	</g>
</g>
</svg>
